<svg xmlns="http://www.w3.org/2000/svg" xmlns:xlink="http://www.w3.org/1999/xlink" width="1366" zoomAndPan="magnify" viewBox="0 0 1024.5 576" height="768" preserveAspectRatio="xMidYMid meet" version="1.2"><defs><clipPath id="f5bc4cc82d"><path d="M 224.140625 0.140625 L 799.859375 0.140625 L 799.859375 575.859375 L 224.140625 575.859375 Z M 224.140625 0.140625 "/></clipPath><clipPath id="a06d283037"><path d="M 305 351 L 719 351 L 719 575.859375 L 305 575.859375 Z M 305 351 "/></clipPath></defs><g id="9dd75e98e9"><g clip-rule="nonzero" clip-path="url(#f5bc4cc82d)"><path style=" stroke:none;fill-rule:nonzero;fill:#59c661;fill-opacity:1;" d="M 799.902344 288.023438 C 799.902344 292.734375 799.789062 297.441406 799.558594 302.148438 C 799.324219 306.851562 798.980469 311.550781 798.515625 316.238281 C 798.054688 320.929688 797.480469 325.601562 796.789062 330.261719 C 796.097656 334.921875 795.292969 339.5625 794.371094 344.183594 C 793.453125 348.804688 792.421875 353.402344 791.277344 357.972656 C 790.132812 362.542969 788.875 367.082031 787.507812 371.589844 C 786.140625 376.097656 784.664062 380.570312 783.074219 385.007812 C 781.488281 389.441406 779.792969 393.835938 777.988281 398.1875 C 776.1875 402.542969 774.277344 406.847656 772.261719 411.105469 C 770.25 415.367188 768.132812 419.574219 765.910156 423.726562 C 763.691406 427.882812 761.367188 431.980469 758.945312 436.023438 C 756.523438 440.0625 754.003906 444.042969 751.386719 447.960938 C 748.769531 451.878906 746.058594 455.726562 743.25 459.511719 C 740.445312 463.296875 737.546875 467.011719 734.558594 470.652344 C 731.570312 474.292969 728.492188 477.859375 725.328125 481.351562 C 722.164062 484.84375 718.917969 488.253906 715.585938 491.585938 C 712.253906 494.917969 708.84375 498.164062 705.351562 501.328125 C 701.859375 504.492188 698.292969 507.566406 694.652344 510.558594 C 691.011719 513.546875 687.296875 516.445312 683.511719 519.25 C 679.730469 522.058594 675.878906 524.769531 671.960938 527.386719 C 668.042969 530.003906 664.0625 532.523438 660.023438 534.945312 C 655.980469 537.367188 651.882812 539.691406 647.726562 541.910156 C 643.574219 544.132812 639.367188 546.25 635.105469 548.261719 C 630.847656 550.277344 626.542969 552.1875 622.1875 553.988281 C 617.835938 555.792969 613.441406 557.488281 609.007812 559.074219 C 604.570312 560.664062 600.097656 562.140625 595.589844 563.507812 C 591.082031 564.875 586.542969 566.132812 581.972656 567.277344 C 577.402344 568.421875 572.804688 569.453125 568.183594 570.371094 C 563.5625 571.289062 558.921875 572.097656 554.261719 572.789062 C 549.601562 573.480469 544.929688 574.054688 540.238281 574.515625 C 535.550781 574.980469 530.851562 575.324219 526.148438 575.554688 C 521.441406 575.789062 516.734375 575.902344 512.023438 575.902344 C 507.3125 575.902344 502.601562 575.789062 497.894531 575.554688 C 493.191406 575.324219 488.492188 574.980469 483.804688 574.515625 C 479.117188 574.054688 474.441406 573.480469 469.78125 572.789062 C 465.121094 572.097656 460.480469 571.289062 455.859375 570.371094 C 451.238281 569.453125 446.644531 568.421875 442.074219 567.277344 C 437.503906 566.132812 432.964844 564.875 428.453125 563.507812 C 423.945312 562.140625 419.472656 560.664062 415.039062 559.074219 C 410.601562 557.488281 406.207031 555.792969 401.855469 553.988281 C 397.5 552.1875 393.195312 550.277344 388.9375 548.261719 C 384.679688 546.25 380.472656 544.132812 376.316406 541.910156 C 372.160156 539.691406 368.0625 537.367188 364.019531 534.945312 C 359.980469 532.523438 356 530.003906 352.082031 527.386719 C 348.167969 524.769531 344.316406 522.058594 340.53125 519.25 C 336.746094 516.445312 333.035156 513.546875 329.390625 510.558594 C 325.75 507.566406 322.183594 504.492188 318.691406 501.328125 C 315.203125 498.164062 311.789062 494.917969 308.460938 491.585938 C 305.128906 488.253906 301.878906 484.84375 298.714844 481.351562 C 295.550781 477.859375 292.476562 474.292969 289.488281 470.652344 C 286.496094 467.011719 283.601562 463.296875 280.792969 459.511719 C 277.988281 455.726562 275.273438 451.878906 272.65625 447.960938 C 270.039062 444.042969 267.519531 440.0625 265.097656 436.023438 C 262.675781 431.980469 260.355469 427.882812 258.132812 423.726562 C 255.914062 419.574219 253.792969 415.367188 251.78125 411.105469 C 249.765625 406.847656 247.855469 402.542969 246.054688 398.1875 C 244.25 393.835938 242.554688 389.441406 240.96875 385.007812 C 239.382812 380.570312 237.90625 376.097656 236.535156 371.589844 C 235.167969 367.082031 233.914062 362.542969 232.769531 357.972656 C 231.625 353.402344 230.589844 348.804688 229.671875 344.183594 C 228.753906 339.5625 227.949219 334.921875 227.257812 330.261719 C 226.566406 325.601562 225.988281 320.929688 225.527344 316.238281 C 225.066406 311.550781 224.71875 306.851562 224.488281 302.148438 C 224.257812 297.441406 224.140625 292.734375 224.140625 288.023438 C 224.140625 283.308594 224.257812 278.601562 224.488281 273.894531 C 224.71875 269.191406 225.066406 264.492188 225.527344 259.804688 C 225.988281 255.117188 226.566406 250.441406 227.257812 245.78125 C 227.949219 241.121094 228.753906 236.480469 229.671875 231.859375 C 230.589844 227.238281 231.625 222.644531 232.769531 218.074219 C 233.914062 213.503906 235.167969 208.964844 236.535156 204.453125 C 237.90625 199.945312 239.382812 195.472656 240.96875 191.039062 C 242.554688 186.601562 244.25 182.207031 246.054688 177.855469 C 247.855469 173.5 249.765625 169.195312 251.78125 164.9375 C 253.792969 160.675781 255.914062 156.46875 258.132812 152.316406 C 260.355469 148.160156 262.675781 144.0625 265.097656 140.019531 C 267.519531 135.980469 270.039062 132 272.65625 128.082031 C 275.273438 124.167969 277.988281 120.316406 280.792969 116.53125 C 283.601562 112.746094 286.496094 109.035156 289.488281 105.390625 C 292.476562 101.75 295.550781 98.183594 298.714844 94.691406 C 301.878906 91.203125 305.128906 87.789062 308.460938 84.460938 C 311.789062 81.128906 315.203125 77.878906 318.691406 74.714844 C 322.183594 71.550781 325.75 68.476562 329.390625 65.488281 C 333.035156 62.496094 336.746094 59.601562 340.53125 56.792969 C 344.316406 53.988281 348.167969 51.273438 352.082031 48.65625 C 356 46.039062 359.980469 43.519531 364.019531 41.097656 C 368.0625 38.675781 372.160156 36.355469 376.316406 34.132812 C 380.472656 31.914062 384.679688 29.792969 388.9375 27.78125 C 393.195312 25.765625 397.5 23.855469 401.855469 22.054688 C 406.207031 20.25 410.601562 18.554688 415.039062 16.96875 C 419.472656 15.382812 423.945312 13.902344 428.453125 12.535156 C 432.964844 11.167969 437.503906 9.914062 442.074219 8.769531 C 446.644531 7.625 451.238281 6.589844 455.859375 5.671875 C 460.480469 4.753906 465.121094 3.949219 469.78125 3.257812 C 474.441406 2.566406 479.117188 1.988281 483.804688 1.527344 C 488.492188 1.066406 493.191406 0.71875 497.894531 0.488281 C 502.601562 0.257812 507.3125 0.140625 512.023438 0.140625 C 516.734375 0.140625 521.441406 0.257812 526.148438 0.488281 C 530.851562 0.71875 535.550781 1.066406 540.238281 1.527344 C 544.929688 1.988281 549.601562 2.566406 554.261719 3.257812 C 558.921875 3.949219 563.5625 4.753906 568.183594 5.671875 C 572.804688 6.589844 577.402344 7.625 581.972656 8.769531 C 586.542969 9.914062 591.082031 11.167969 595.589844 12.535156 C 600.097656 13.902344 604.570312 15.382812 609.007812 16.96875 C 613.441406 18.554688 617.835938 20.25 622.1875 22.054688 C 626.542969 23.855469 630.847656 25.765625 635.105469 27.78125 C 639.367188 29.792969 643.574219 31.914062 647.726562 34.132812 C 651.882812 36.355469 655.980469 38.675781 660.023438 41.097656 C 664.0625 43.519531 668.042969 46.039062 671.960938 48.65625 C 675.878906 51.273438 679.726562 53.988281 683.511719 56.792969 C 687.296875 59.601562 691.011719 62.496094 694.652344 65.488281 C 698.292969 68.476562 701.859375 71.550781 705.351562 74.714844 C 708.84375 77.878906 712.253906 81.128906 715.585938 84.460938 C 718.917969 87.789062 722.164062 91.203125 725.328125 94.691406 C 728.492188 98.183594 731.570312 101.75 734.558594 105.390625 C 737.546875 109.035156 740.445312 112.746094 743.25 116.53125 C 746.058594 120.316406 748.769531 124.167969 751.386719 128.082031 C 754.003906 132 756.523438 135.980469 758.945312 140.019531 C 761.367188 144.0625 763.691406 148.160156 765.910156 152.316406 C 768.132812 156.46875 770.25 160.675781 772.261719 164.9375 C 774.277344 169.195312 776.1875 173.5 777.988281 177.855469 C 779.792969 182.207031 781.488281 186.601562 783.074219 191.039062 C 784.664062 195.472656 786.140625 199.945312 787.507812 204.453125 C 788.875 208.964844 790.132812 213.503906 791.277344 218.074219 C 792.421875 222.644531 793.453125 227.238281 794.371094 231.859375 C 795.292969 236.480469 796.097656 241.121094 796.789062 245.78125 C 797.480469 250.441406 798.054688 255.117188 798.515625 259.804688 C 798.980469 264.492188 799.324219 269.191406 799.558594 273.894531 C 799.789062 278.601562 799.902344 283.308594 799.902344 288.023438 Z M 799.902344 288.023438 "/></g><g clip-rule="nonzero" clip-path="url(#a06d283037)"><path style=" stroke:none;fill-rule:nonzero;fill:#ffbc0f;fill-opacity:1;" d="M 718.699219 488.59375 C 715.355469 492.042969 711.925781 495.402344 708.410156 498.675781 C 704.898438 501.953125 701.304688 505.136719 697.632812 508.230469 C 693.957031 511.328125 690.210938 514.328125 686.386719 517.234375 C 682.5625 520.144531 678.671875 522.953125 674.707031 525.664062 C 670.742188 528.378906 666.714844 530.988281 662.621094 533.5 C 658.523438 536.011719 654.371094 538.417969 650.15625 540.722656 C 645.941406 543.027344 641.671875 545.222656 637.347656 547.3125 C 633.019531 549.402344 628.648438 551.382812 624.222656 553.253906 C 619.800781 555.125 615.332031 556.882812 610.820312 558.53125 C 606.308594 560.179688 601.757812 561.710938 597.167969 563.132812 C 592.582031 564.550781 587.960938 565.855469 583.304688 567.042969 C 578.652344 568.234375 573.972656 569.304688 569.265625 570.257812 C 564.558594 571.214844 559.828125 572.050781 555.078125 572.769531 C 550.332031 573.484375 545.566406 574.085938 540.785156 574.5625 C 536.007812 575.042969 531.21875 575.402344 526.421875 575.644531 C 521.625 575.882812 516.824219 576.003906 512.023438 576.003906 C 507.21875 576.003906 502.417969 575.882812 497.621094 575.644531 C 492.824219 575.402344 488.035156 575.042969 483.257812 574.5625 C 478.476562 574.085938 473.714844 573.484375 468.964844 572.769531 C 464.214844 572.050781 459.488281 571.214844 454.78125 570.257812 C 450.074219 569.304688 445.390625 568.234375 440.738281 567.042969 C 436.085938 565.855469 431.464844 564.550781 426.875 563.132812 C 422.285156 561.710938 417.734375 560.179688 413.222656 558.53125 C 408.710938 556.882812 404.246094 555.125 399.820312 553.253906 C 395.398438 551.382812 391.023438 549.402344 386.699219 547.3125 C 382.375 545.222656 378.105469 543.027344 373.890625 540.722656 C 369.675781 538.417969 365.519531 536.011719 361.425781 533.5 C 357.332031 530.988281 353.300781 528.378906 349.335938 525.664062 C 345.375 522.953125 341.480469 520.144531 337.65625 517.234375 C 333.832031 514.328125 330.085938 511.328125 326.414062 508.230469 C 322.738281 505.136719 319.144531 501.953125 315.632812 498.675781 C 312.117188 495.402344 308.6875 492.042969 305.34375 488.59375 C 307.476562 483.550781 309.789062 478.589844 312.28125 473.714844 C 314.777344 468.839844 317.445312 464.0625 320.292969 459.386719 C 323.136719 454.707031 326.148438 450.136719 329.328125 445.675781 C 332.503906 441.21875 335.84375 436.882812 339.339844 432.667969 C 342.835938 428.453125 346.484375 424.371094 350.277344 420.421875 C 354.074219 416.476562 358.007812 412.671875 362.082031 409.011719 C 366.15625 405.355469 370.359375 401.847656 374.6875 398.496094 C 379.019531 395.144531 383.464844 391.957031 388.03125 388.929688 C 392.59375 385.902344 397.261719 383.046875 402.035156 380.363281 C 406.808594 377.679688 411.675781 375.171875 416.628906 372.84375 C 421.585938 370.515625 426.621094 368.371094 431.734375 366.414062 C 436.851562 364.453125 442.027344 362.683594 447.269531 361.101562 C 452.515625 359.523438 457.808594 358.136719 463.152344 356.945312 C 468.496094 355.75 473.878906 354.753906 479.296875 353.957031 C 484.714844 353.15625 490.152344 352.558594 495.617188 352.15625 C 501.078125 351.757812 506.546875 351.558594 512.023438 351.558594 C 517.5 351.558594 522.96875 351.757812 528.429688 352.15625 C 533.890625 352.558594 539.328125 353.15625 544.746094 353.957031 C 550.164062 354.753906 555.546875 355.75 560.890625 356.945312 C 566.234375 358.136719 571.53125 359.523438 576.773438 361.101562 C 582.015625 362.683594 587.195312 364.453125 592.308594 366.414062 C 597.421875 368.371094 602.457031 370.515625 607.414062 372.84375 C 612.371094 375.171875 617.234375 377.679688 622.007812 380.363281 C 626.78125 383.046875 631.449219 385.902344 636.011719 388.929688 C 640.578125 391.957031 645.023438 395.144531 649.355469 398.496094 C 653.6875 401.847656 657.886719 405.355469 661.960938 409.011719 C 666.035156 412.671875 669.96875 416.476562 673.765625 420.421875 C 677.5625 424.371094 681.207031 428.453125 684.703125 432.667969 C 688.199219 436.882812 691.539062 441.21875 694.71875 445.675781 C 697.894531 450.136719 700.90625 454.707031 703.753906 459.386719 C 706.597656 464.0625 709.265625 468.839844 711.761719 473.714844 C 714.257812 478.589844 716.570312 483.550781 718.699219 488.59375 Z M 718.699219 488.59375 "/></g><path style=" stroke:none;fill-rule:nonzero;fill:#ff9561;fill-opacity:1;" d="M 511.910156 288.023438 C 513.238281 288.023438 514.5625 288.085938 515.882812 288.21875 C 517.203125 288.347656 518.515625 288.542969 519.816406 288.800781 C 521.121094 289.058594 522.40625 289.382812 523.675781 289.765625 C 524.945312 290.152344 526.195312 290.597656 527.421875 291.109375 C 528.648438 291.617188 529.847656 292.183594 531.015625 292.808594 C 532.1875 293.433594 533.324219 294.117188 534.429688 294.851562 C 535.535156 295.589844 536.597656 296.378906 537.625 297.222656 C 538.652344 298.066406 539.632812 298.957031 540.570312 299.894531 C 541.511719 300.832031 542.402344 301.816406 543.242188 302.84375 C 544.085938 303.867188 544.875 304.933594 545.613281 306.035156 C 546.351562 307.140625 547.03125 308.277344 547.660156 309.449219 C 548.285156 310.621094 548.851562 311.820312 549.359375 313.046875 C 549.867188 314.273438 550.3125 315.519531 550.699219 316.789062 C 551.085938 318.0625 551.40625 319.347656 551.664062 320.648438 C 551.925781 321.953125 552.121094 323.261719 552.25 324.585938 C 552.378906 325.90625 552.445312 327.230469 552.445312 328.558594 L 552.445312 364.3125 C 552.445312 365.636719 552.378906 366.964844 552.25 368.285156 C 552.121094 369.605469 551.925781 370.917969 551.664062 372.21875 C 551.40625 373.519531 551.085938 374.808594 550.699219 376.078125 C 550.3125 377.347656 549.867188 378.597656 549.359375 379.824219 C 548.851562 381.050781 548.285156 382.25 547.660156 383.417969 C 547.03125 384.589844 546.351562 385.726562 545.613281 386.832031 C 544.875 387.933594 544.085938 389 543.242188 390.027344 C 542.402344 391.050781 541.511719 392.035156 540.570312 392.972656 C 539.632812 393.914062 538.652344 394.804688 537.625 395.644531 C 536.597656 396.488281 535.535156 397.277344 534.429688 398.015625 C 533.324219 398.753906 532.1875 399.433594 531.015625 400.058594 C 529.847656 400.6875 528.648438 401.253906 527.421875 401.761719 C 526.195312 402.269531 524.945312 402.714844 523.675781 403.101562 C 522.40625 403.488281 521.121094 403.808594 519.816406 404.066406 C 518.515625 404.328125 517.203125 404.519531 515.882812 404.652344 C 514.5625 404.78125 513.238281 404.847656 511.910156 404.847656 C 510.582031 404.847656 509.257812 404.78125 507.9375 404.652344 C 506.613281 404.519531 505.304688 404.328125 504 404.066406 C 502.699219 403.808594 501.414062 403.488281 500.140625 403.101562 C 498.871094 402.714844 497.625 402.269531 496.398438 401.761719 C 495.171875 401.253906 493.972656 400.6875 492.800781 400.058594 C 491.628906 399.433594 490.492188 398.753906 489.390625 398.015625 C 488.285156 397.277344 487.21875 396.488281 486.195312 395.644531 C 485.167969 394.804688 484.183594 393.914062 483.246094 392.972656 C 482.308594 392.035156 481.417969 391.050781 480.574219 390.027344 C 479.734375 389 478.941406 387.933594 478.203125 386.832031 C 477.46875 385.726562 476.785156 384.589844 476.160156 383.417969 C 475.535156 382.25 474.96875 381.050781 474.460938 379.824219 C 473.953125 378.597656 473.503906 377.347656 473.117188 376.078125 C 472.734375 374.808594 472.410156 373.519531 472.152344 372.21875 C 471.894531 370.917969 471.699219 369.605469 471.570312 368.285156 C 471.4375 366.964844 471.375 365.636719 471.375 364.3125 L 471.375 328.558594 C 471.375 327.230469 471.4375 325.90625 471.570312 324.585938 C 471.699219 323.261719 471.894531 321.953125 472.152344 320.648438 C 472.410156 319.347656 472.734375 318.0625 473.117188 316.789062 C 473.503906 315.519531 473.953125 314.273438 474.460938 313.046875 C 474.96875 311.820312 475.535156 310.621094 476.160156 309.449219 C 476.785156 308.277344 477.46875 307.140625 478.203125 306.039062 C 478.941406 304.933594 479.734375 303.867188 480.574219 302.84375 C 481.417969 301.816406 482.308594 300.832031 483.246094 299.894531 C 484.183594 298.957031 485.167969 298.066406 486.195312 297.222656 C 487.21875 296.378906 488.285156 295.589844 489.390625 294.851562 C 490.492188 294.117188 491.628906 293.433594 492.800781 292.808594 C 493.972656 292.183594 495.171875 291.617188 496.398438 291.109375 C 497.625 290.597656 498.871094 290.152344 500.140625 289.765625 C 501.414062 289.382812 502.699219 289.058594 504 288.800781 C 505.304688 288.542969 506.613281 288.347656 507.9375 288.21875 C 509.257812 288.085938 510.582031 288.023438 511.910156 288.023438 Z M 511.910156 288.023438 "/><path style=" stroke:none;fill-rule:nonzero;fill:#002c5c;fill-opacity:1;" d="M 416.304688 279.441406 C 402.277344 256.148438 382.808594 199.539062 389.296875 167.085938 C 395.785156 134.636719 416.304688 137.519531 416.304688 137.519531 C 416.304688 137.519531 406.964844 119.851562 430.414062 103.265625 C 453.863281 86.679688 564.910156 108.675781 597.722656 103.265625 C 630.535156 97.855469 643.152344 110.835938 645.316406 138.242188 C 647.480469 165.644531 615.957031 236.9375 615.957031 236.9375 C 615.957031 236.9375 591.589844 243.164062 586.902344 244.246094 "/><path style=" stroke:none;fill-rule:nonzero;fill:#ff9561;fill-opacity:1;" d="M 438.023438 262.5 C 438.023438 263.335938 437.984375 264.171875 437.902344 265.003906 C 437.820312 265.839844 437.699219 266.667969 437.535156 267.488281 C 437.371094 268.308594 437.167969 269.121094 436.925781 269.921875 C 436.679688 270.722656 436.398438 271.507812 436.078125 272.28125 C 435.757812 273.054688 435.402344 273.8125 435.007812 274.550781 C 434.613281 275.289062 434.183594 276.003906 433.71875 276.703125 C 433.253906 277.398438 432.753906 278.070312 432.222656 278.71875 C 431.691406 279.363281 431.128906 279.984375 430.539062 280.574219 C 429.945312 281.167969 429.328125 281.730469 428.679688 282.261719 C 428.03125 282.792969 427.359375 283.289062 426.664062 283.753906 C 425.96875 284.21875 425.25 284.648438 424.511719 285.042969 C 423.773438 285.4375 423.019531 285.796875 422.246094 286.117188 C 421.472656 286.4375 420.683594 286.71875 419.882812 286.960938 C 419.082031 287.203125 418.269531 287.40625 417.449219 287.570312 C 416.628906 287.734375 415.800781 287.859375 414.96875 287.941406 C 414.136719 288.023438 413.300781 288.0625 412.460938 288.0625 C 411.625 288.0625 410.789062 288.023438 409.957031 287.941406 C 409.125 287.859375 408.296875 287.734375 407.476562 287.570312 C 406.65625 287.40625 405.84375 287.203125 405.042969 286.960938 C 404.242188 286.71875 403.453125 286.4375 402.679688 286.117188 C 401.90625 285.796875 401.152344 285.4375 400.414062 285.042969 C 399.675781 284.648438 398.957031 284.21875 398.261719 283.753906 C 397.566406 283.289062 396.894531 282.792969 396.246094 282.261719 C 395.597656 281.730469 394.980469 281.167969 394.386719 280.574219 C 393.796875 279.984375 393.234375 279.363281 392.703125 278.71875 C 392.171875 278.070312 391.671875 277.398438 391.207031 276.703125 C 390.742188 276.007812 390.3125 275.289062 389.917969 274.550781 C 389.523438 273.8125 389.167969 273.054688 388.847656 272.28125 C 388.527344 271.507812 388.242188 270.722656 388 269.921875 C 387.757812 269.121094 387.554688 268.308594 387.390625 267.488281 C 387.226562 266.667969 387.105469 265.839844 387.023438 265.003906 C 386.941406 264.171875 386.898438 263.335938 386.898438 262.5 C 386.898438 261.664062 386.941406 260.828125 387.023438 259.996094 C 387.105469 259.160156 387.226562 258.335938 387.390625 257.511719 C 387.554688 256.691406 387.757812 255.882812 388 255.078125 C 388.242188 254.277344 388.527344 253.492188 388.847656 252.71875 C 389.167969 251.945312 389.523438 251.1875 389.917969 250.449219 C 390.3125 249.710938 390.742188 248.996094 391.207031 248.296875 C 391.671875 247.601562 392.171875 246.929688 392.703125 246.285156 C 393.234375 245.636719 393.796875 245.015625 394.386719 244.425781 C 394.980469 243.832031 395.597656 243.269531 396.246094 242.742188 C 396.894531 242.210938 397.566406 241.710938 398.261719 241.246094 C 398.957031 240.78125 399.675781 240.351562 400.414062 239.957031 C 401.152344 239.5625 401.90625 239.203125 402.679688 238.882812 C 403.453125 238.5625 404.242188 238.28125 405.042969 238.039062 C 405.84375 237.796875 406.65625 237.59375 407.476562 237.429688 C 408.296875 237.265625 409.125 237.144531 409.957031 237.0625 C 410.789062 236.980469 411.625 236.9375 412.460938 236.9375 C 413.300781 236.9375 414.136719 236.980469 414.96875 237.0625 C 415.800781 237.144531 416.628906 237.265625 417.449219 237.429688 C 418.269531 237.59375 419.082031 237.796875 419.882812 238.039062 C 420.683594 238.28125 421.472656 238.5625 422.246094 238.882812 C 423.019531 239.203125 423.773438 239.5625 424.511719 239.957031 C 425.25 240.351562 425.96875 240.78125 426.664062 241.246094 C 427.359375 241.710938 428.03125 242.210938 428.679688 242.742188 C 429.328125 243.269531 429.945312 243.832031 430.539062 244.425781 C 431.128906 245.015625 431.691406 245.636719 432.222656 246.285156 C 432.753906 246.929688 433.253906 247.601562 433.71875 248.296875 C 434.183594 248.996094 434.613281 249.710938 435.007812 250.449219 C 435.402344 251.1875 435.757812 251.945312 436.078125 252.71875 C 436.398438 253.492188 436.679688 254.277344 436.925781 255.078125 C 437.167969 255.882812 437.371094 256.691406 437.535156 257.511719 C 437.699219 258.335938 437.820312 259.160156 437.902344 259.996094 C 437.984375 260.828125 438.023438 261.664062 438.023438 262.5 Z M 438.023438 262.5 "/><path style=" stroke:none;fill-rule:nonzero;fill:#ff9561;fill-opacity:1;" d="M 634.539062 262.5 C 634.539062 263.335938 634.496094 264.171875 634.414062 265.003906 C 634.332031 265.839844 634.210938 266.667969 634.046875 267.488281 C 633.882812 268.308594 633.679688 269.121094 633.4375 269.921875 C 633.195312 270.722656 632.914062 271.507812 632.59375 272.28125 C 632.273438 273.054688 631.914062 273.8125 631.519531 274.550781 C 631.125 275.289062 630.695312 276.003906 630.230469 276.703125 C 629.765625 277.398438 629.265625 278.070312 628.734375 278.71875 C 628.203125 279.363281 627.644531 279.984375 627.050781 280.574219 C 626.457031 281.167969 625.839844 281.730469 625.191406 282.261719 C 624.542969 282.792969 623.875 283.289062 623.175781 283.753906 C 622.480469 284.21875 621.765625 284.648438 621.027344 285.042969 C 620.289062 285.4375 619.53125 285.796875 618.757812 286.117188 C 617.984375 286.4375 617.195312 286.71875 616.394531 286.960938 C 615.59375 287.203125 614.785156 287.40625 613.960938 287.570312 C 613.140625 287.734375 612.3125 287.859375 611.480469 287.941406 C 610.648438 288.023438 609.8125 288.0625 608.976562 288.0625 C 608.136719 288.0625 607.304688 288.023438 606.46875 287.941406 C 605.636719 287.859375 604.808594 287.734375 603.988281 287.570312 C 603.167969 287.40625 602.355469 287.203125 601.554688 286.960938 C 600.753906 286.71875 599.964844 286.4375 599.191406 286.117188 C 598.417969 285.796875 597.664062 285.4375 596.925781 285.042969 C 596.1875 284.648438 595.46875 284.21875 594.773438 283.753906 C 594.078125 283.289062 593.40625 282.792969 592.757812 282.261719 C 592.113281 281.730469 591.492188 281.167969 590.898438 280.574219 C 590.308594 279.984375 589.746094 279.363281 589.214844 278.71875 C 588.683594 278.070312 588.1875 277.398438 587.722656 276.703125 C 587.257812 276.007812 586.824219 275.289062 586.429688 274.550781 C 586.035156 273.8125 585.679688 273.054688 585.359375 272.28125 C 585.039062 271.507812 584.757812 270.722656 584.515625 269.921875 C 584.269531 269.121094 584.066406 268.308594 583.902344 267.488281 C 583.742188 266.667969 583.617188 265.839844 583.535156 265.003906 C 583.453125 264.171875 583.414062 263.335938 583.414062 262.5 C 583.414062 261.664062 583.453125 260.828125 583.535156 259.996094 C 583.617188 259.160156 583.742188 258.335938 583.902344 257.511719 C 584.066406 256.691406 584.269531 255.882812 584.515625 255.078125 C 584.757812 254.277344 585.039062 253.492188 585.359375 252.71875 C 585.679688 251.945312 586.035156 251.1875 586.429688 250.449219 C 586.824219 249.710938 587.257812 248.996094 587.722656 248.296875 C 588.1875 247.601562 588.683594 246.929688 589.214844 246.285156 C 589.746094 245.636719 590.308594 245.015625 590.898438 244.425781 C 591.492188 243.832031 592.113281 243.269531 592.757812 242.742188 C 593.40625 242.210938 594.078125 241.710938 594.773438 241.246094 C 595.46875 240.78125 596.1875 240.351562 596.925781 239.957031 C 597.664062 239.5625 598.417969 239.203125 599.191406 238.882812 C 599.964844 238.5625 600.753906 238.28125 601.554688 238.039062 C 602.355469 237.796875 603.167969 237.59375 603.988281 237.429688 C 604.808594 237.265625 605.636719 237.144531 606.46875 237.0625 C 607.304688 236.980469 608.136719 236.9375 608.976562 236.9375 C 609.8125 236.9375 610.648438 236.980469 611.480469 237.0625 C 612.3125 237.144531 613.140625 237.265625 613.960938 237.429688 C 614.785156 237.59375 615.59375 237.796875 616.394531 238.039062 C 617.195312 238.28125 617.984375 238.5625 618.757812 238.882812 C 619.53125 239.203125 620.289062 239.5625 621.027344 239.957031 C 621.765625 240.351562 622.480469 240.78125 623.175781 241.246094 C 623.875 241.710938 624.542969 242.210938 625.191406 242.742188 C 625.839844 243.269531 626.457031 243.832031 627.050781 244.425781 C 627.644531 245.015625 628.203125 245.636719 628.734375 246.285156 C 629.265625 246.929688 629.765625 247.601562 630.230469 248.296875 C 630.695312 248.996094 631.125 249.710938 631.519531 250.449219 C 631.914062 251.1875 632.273438 251.945312 632.59375 252.71875 C 632.914062 253.492188 633.195312 254.277344 633.4375 255.078125 C 633.679688 255.882812 633.882812 256.691406 634.046875 257.511719 C 634.210938 258.335938 634.332031 259.160156 634.414062 259.996094 C 634.496094 260.828125 634.539062 261.664062 634.539062 262.5 Z M 634.539062 262.5 "/><path style=" stroke:none;fill-rule:nonzero;fill:#ffc9ac;fill-opacity:1;" d="M 512.019531 126.703125 C 513.648438 126.703125 515.277344 126.742188 516.90625 126.820312 C 518.53125 126.902344 520.15625 127.019531 521.777344 127.179688 C 523.398438 127.339844 525.015625 127.539062 526.628906 127.777344 C 528.242188 128.019531 529.84375 128.296875 531.441406 128.613281 C 533.042969 128.933594 534.628906 129.289062 536.210938 129.683594 C 537.792969 130.082031 539.359375 130.515625 540.921875 130.988281 C 542.480469 131.460938 544.027344 131.972656 545.558594 132.519531 C 547.09375 133.070312 548.613281 133.65625 550.121094 134.28125 C 551.625 134.902344 553.113281 135.5625 554.585938 136.261719 C 556.058594 136.957031 557.515625 137.6875 558.953125 138.457031 C 560.386719 139.226562 561.804688 140.027344 563.203125 140.867188 C 564.601562 141.703125 565.976562 142.574219 567.332031 143.480469 C 568.6875 144.386719 570.019531 145.324219 571.328125 146.292969 C 572.636719 147.265625 573.917969 148.265625 575.179688 149.300781 C 576.4375 150.335938 577.671875 151.398438 578.878906 152.492188 C 580.085938 153.585938 581.265625 154.710938 582.417969 155.863281 C 583.570312 157.015625 584.695312 158.195312 585.789062 159.402344 C 586.882812 160.609375 587.945312 161.839844 588.980469 163.101562 C 590.011719 164.359375 591.015625 165.644531 591.984375 166.953125 C 592.957031 168.261719 593.894531 169.59375 594.800781 170.949219 C 595.703125 172.304688 596.578125 173.679688 597.414062 175.078125 C 598.25 176.472656 599.054688 177.890625 599.824219 179.328125 C 600.589844 180.765625 601.324219 182.21875 602.019531 183.695312 C 602.714844 185.167969 603.375 186.65625 604 188.160156 C 604.625 189.667969 605.210938 191.1875 605.757812 192.71875 C 606.308594 194.253906 606.816406 195.800781 607.292969 197.359375 C 607.765625 198.917969 608.199219 200.488281 608.59375 202.070312 C 608.992188 203.648438 609.347656 205.238281 609.664062 206.835938 C 609.984375 208.4375 610.261719 210.039062 610.5 211.652344 C 610.738281 213.265625 610.9375 214.878906 611.097656 216.503906 C 611.257812 218.125 611.378906 219.75 611.457031 221.375 C 611.539062 223.003906 611.578125 224.632812 611.578125 226.261719 L 611.578125 251.996094 C 611.578125 253.625 611.539062 255.253906 611.457031 256.878906 C 611.378906 258.507812 611.257812 260.132812 611.097656 261.753906 C 610.9375 263.375 610.738281 264.992188 610.5 266.605469 C 610.261719 268.214844 609.984375 269.820312 609.664062 271.417969 C 609.347656 273.015625 608.992188 274.605469 608.59375 276.1875 C 608.199219 277.765625 607.765625 279.335938 607.292969 280.894531 C 606.816406 282.457031 606.308594 284.003906 605.757812 285.535156 C 605.210938 287.070312 604.625 288.589844 604 290.09375 C 603.375 291.601562 602.714844 293.089844 602.019531 294.5625 C 601.324219 296.035156 600.589844 297.492188 599.824219 298.925781 C 599.054688 300.363281 598.25 301.78125 597.414062 303.179688 C 596.578125 304.578125 595.703125 305.953125 594.800781 307.308594 C 593.894531 308.664062 592.957031 309.996094 591.984375 311.304688 C 591.015625 312.613281 590.011719 313.894531 588.980469 315.15625 C 587.945312 316.414062 586.882812 317.648438 585.789062 318.855469 C 584.695312 320.0625 583.570312 321.242188 582.417969 322.394531 C 581.265625 323.546875 580.085938 324.667969 578.878906 325.765625 C 577.671875 326.859375 576.4375 327.921875 575.179688 328.957031 C 573.917969 329.988281 572.636719 330.992188 571.328125 331.960938 C 570.019531 332.933594 568.6875 333.871094 567.332031 334.777344 C 565.976562 335.679688 564.601562 336.550781 563.203125 337.390625 C 561.804688 338.226562 560.386719 339.03125 558.953125 339.800781 C 557.515625 340.566406 556.058594 341.300781 554.585938 341.996094 C 553.113281 342.691406 551.625 343.351562 550.121094 343.976562 C 548.613281 344.601562 547.09375 345.1875 545.558594 345.734375 C 544.027344 346.285156 542.480469 346.792969 540.921875 347.269531 C 539.363281 347.742188 537.792969 348.175781 536.210938 348.570312 C 534.628906 348.96875 533.042969 349.324219 531.441406 349.640625 C 529.84375 349.960938 528.242188 350.238281 526.628906 350.476562 C 525.015625 350.714844 523.398438 350.914062 521.777344 351.074219 C 520.15625 351.234375 518.53125 351.355469 516.90625 351.433594 C 515.277344 351.515625 513.648438 351.554688 512.019531 351.554688 C 510.390625 351.554688 508.761719 351.515625 507.136719 351.433594 C 505.507812 351.355469 503.882812 351.234375 502.261719 351.074219 C 500.640625 350.914062 499.023438 350.714844 497.414062 350.476562 C 495.800781 350.238281 494.195312 349.960938 492.597656 349.640625 C 491 349.324219 489.410156 348.96875 487.828125 348.570312 C 486.25 348.175781 484.679688 347.742188 483.121094 347.269531 C 481.5625 346.792969 480.015625 346.285156 478.480469 345.734375 C 476.945312 345.1875 475.425781 344.601562 473.921875 343.976562 C 472.417969 343.351562 470.925781 342.691406 469.453125 341.996094 C 467.980469 341.300781 466.527344 340.566406 465.089844 339.800781 C 463.652344 339.03125 462.234375 338.226562 460.835938 337.390625 C 459.441406 336.550781 458.0625 335.679688 456.710938 334.777344 C 455.355469 333.871094 454.023438 332.933594 452.714844 331.960938 C 451.40625 330.992188 450.121094 329.988281 448.863281 328.957031 C 447.601562 327.921875 446.367188 326.859375 445.160156 325.765625 C 443.953125 324.667969 442.773438 323.546875 441.621094 322.394531 C 440.46875 321.242188 439.347656 320.0625 438.253906 318.855469 C 437.160156 317.648438 436.09375 316.414062 435.0625 315.15625 C 434.027344 313.894531 433.027344 312.613281 432.054688 311.304688 C 431.085938 309.996094 430.144531 308.664062 429.242188 307.308594 C 428.335938 305.953125 427.464844 304.578125 426.628906 303.179688 C 425.789062 301.78125 424.988281 300.363281 424.21875 298.925781 C 423.449219 297.492188 422.71875 296.035156 422.019531 294.5625 C 421.324219 293.089844 420.664062 291.601562 420.042969 290.09375 C 419.417969 288.589844 418.832031 287.070312 418.28125 285.535156 C 417.734375 284 417.222656 282.457031 416.75 280.894531 C 416.277344 279.335938 415.84375 277.765625 415.445312 276.1875 C 415.050781 274.605469 414.695312 273.015625 414.375 271.417969 C 414.058594 269.820312 413.78125 268.214844 413.539062 266.605469 C 413.300781 264.992188 413.101562 263.375 412.941406 261.753906 C 412.78125 260.132812 412.664062 258.507812 412.582031 256.878906 C 412.503906 255.253906 412.460938 253.625 412.460938 251.996094 L 412.460938 226.261719 C 412.460938 224.632812 412.503906 223.003906 412.582031 221.375 C 412.664062 219.75 412.78125 218.125 412.941406 216.503906 C 413.101562 214.878906 413.300781 213.265625 413.539062 211.652344 C 413.78125 210.039062 414.058594 208.4375 414.375 206.835938 C 414.695312 205.238281 415.050781 203.648438 415.445312 202.070312 C 415.84375 200.488281 416.277344 198.917969 416.75 197.359375 C 417.222656 195.800781 417.734375 194.253906 418.28125 192.71875 C 418.832031 191.1875 419.417969 189.667969 420.042969 188.160156 C 420.664062 186.65625 421.324219 185.167969 422.019531 183.695312 C 422.71875 182.222656 423.449219 180.765625 424.21875 179.328125 C 424.988281 177.890625 425.789062 176.472656 426.628906 175.078125 C 427.464844 173.679688 428.335938 172.304688 429.242188 170.949219 C 430.144531 169.59375 431.085938 168.261719 432.054688 166.953125 C 433.027344 165.644531 434.027344 164.359375 435.0625 163.101562 C 436.09375 161.839844 437.160156 160.609375 438.253906 159.402344 C 439.347656 158.195312 440.46875 157.015625 441.621094 155.863281 C 442.773438 154.710938 443.953125 153.585938 445.160156 152.492188 C 446.367188 151.398438 447.601562 150.335938 448.863281 149.300781 C 450.121094 148.265625 451.40625 147.265625 452.714844 146.292969 C 454.023438 145.324219 455.355469 144.386719 456.710938 143.480469 C 458.0625 142.574219 459.441406 141.703125 460.835938 140.867188 C 462.234375 140.027344 463.652344 139.226562 465.089844 138.457031 C 466.527344 137.6875 467.980469 136.957031 469.453125 136.261719 C 470.925781 135.5625 472.417969 134.902344 473.921875 134.28125 C 475.425781 133.65625 476.945312 133.070312 478.480469 132.519531 C 480.015625 131.972656 481.5625 131.460938 483.121094 130.988281 C 484.679688 130.515625 486.25 130.082031 487.828125 129.683594 C 489.410156 129.289062 491 128.933594 492.597656 128.613281 C 494.195312 128.296875 495.800781 128.019531 497.414062 127.777344 C 499.023438 127.539062 500.640625 127.339844 502.261719 127.179688 C 503.882812 127.019531 505.507812 126.902344 507.136719 126.820312 C 508.761719 126.742188 510.390625 126.703125 512.019531 126.703125 Z M 512.019531 126.703125 "/><path style=" stroke:none;fill-rule:nonzero;fill:#002c5c;fill-opacity:1;" d="M 413.753906 268.046875 C 433.824219 230.730469 430.375 183.671875 430.375 183.671875 C 430.375 183.671875 579.632812 157.710938 610.882812 263.703125 L 624.273438 135.265625 C 624.273438 135.265625 533.136719 116.066406 531.515625 116.066406 C 529.890625 116.066406 488.242188 113.902344 479.59375 116.066406 C 470.945312 118.230469 434.160156 126.339844 427.128906 132.289062 C 420.097656 138.238281 411.449219 161.5 409.820312 164.203125 C 408.1875 166.90625 398.488281 182.988281 398.488281 188.195312 C 398.488281 193.40625 413.753906 268.046875 413.753906 268.046875 Z M 413.753906 268.046875 "/></g></svg>