<svg xmlns="http://www.w3.org/2000/svg" xmlns:xlink="http://www.w3.org/1999/xlink" width="1366" zoomAndPan="magnify" viewBox="0 0 1024.5 576" height="768" preserveAspectRatio="xMidYMid meet" version="1.2"><defs><clipPath id="4d42b3cf3b"><path d="M 226.300781 3 L 797.519531 3 L 797.519531 575.859375 L 226.300781 575.859375 Z M 226.300781 3 "/></clipPath><clipPath id="c47a2969d8"><path d="M 320 289 L 704 289 L 704 575.859375 L 320 575.859375 Z M 320 289 "/></clipPath></defs><g id="bd6fd763ea"><g clip-rule="nonzero" clip-path="url(#4d42b3cf3b)"><path style=" stroke:none;fill-rule:nonzero;fill:#f1582e;fill-opacity:1;" d="M 797.519531 289.339844 C 797.519531 294.015625 797.40625 298.6875 797.175781 303.359375 C 796.949219 308.027344 796.605469 312.6875 796.144531 317.34375 C 795.6875 321.996094 795.117188 326.636719 794.429688 331.261719 C 793.742188 335.886719 792.945312 340.492188 792.03125 345.078125 C 791.121094 349.660156 790.097656 354.222656 788.960938 358.757812 C 787.824219 363.292969 786.578125 367.796875 785.222656 372.273438 C 783.867188 376.746094 782.398438 381.1875 780.824219 385.589844 C 779.25 389.992188 777.570312 394.351562 775.78125 398.671875 C 773.992188 402.992188 772.097656 407.265625 770.097656 411.492188 C 768.101562 415.71875 766 419.894531 763.796875 424.015625 C 761.59375 428.140625 759.289062 432.207031 756.886719 436.21875 C 754.484375 440.226562 751.984375 444.175781 749.386719 448.066406 C 746.789062 451.953125 744.097656 455.773438 741.316406 459.53125 C 738.53125 463.285156 735.65625 466.96875 732.691406 470.585938 C 729.726562 474.199219 726.671875 477.738281 723.535156 481.203125 C 720.394531 484.667969 717.171875 488.050781 713.867188 491.359375 C 710.5625 494.664062 707.179688 497.886719 703.714844 501.027344 C 700.25 504.167969 696.710938 507.222656 693.101562 510.1875 C 689.488281 513.152344 685.800781 516.027344 682.046875 518.8125 C 678.292969 521.601562 674.472656 524.292969 670.585938 526.890625 C 666.699219 529.488281 662.753906 531.988281 658.742188 534.390625 C 654.734375 536.792969 650.667969 539.097656 646.546875 541.304688 C 642.421875 543.507812 638.25 545.609375 634.023438 547.609375 C 629.800781 549.605469 625.527344 551.5 621.207031 553.289062 C 616.890625 555.078125 612.53125 556.761719 608.128906 558.335938 C 603.726562 559.910156 599.292969 561.378906 594.820312 562.734375 C 590.34375 564.09375 585.84375 565.339844 581.308594 566.476562 C 576.773438 567.613281 572.214844 568.636719 567.628906 569.546875 C 563.046875 570.460938 558.441406 571.257812 553.816406 571.945312 C 549.195312 572.632812 544.554688 573.203125 539.90625 573.660156 C 535.253906 574.121094 530.59375 574.464844 525.925781 574.695312 C 521.253906 574.921875 516.585938 575.039062 511.910156 575.039062 C 507.234375 575.039062 502.566406 574.921875 497.894531 574.695312 C 493.226562 574.464844 488.566406 574.121094 483.914062 573.660156 C 479.265625 573.203125 474.625 572.632812 470.003906 571.945312 C 465.378906 571.257812 460.773438 570.460938 456.191406 569.546875 C 451.605469 568.636719 447.046875 567.613281 442.511719 566.476562 C 437.976562 565.339844 433.476562 564.09375 429 562.734375 C 424.527344 561.378906 420.09375 559.910156 415.691406 558.335938 C 411.289062 556.761719 406.929688 555.078125 402.613281 553.289062 C 398.292969 551.5 394.019531 549.605469 389.796875 547.609375 C 385.570312 545.609375 381.398438 543.507812 377.273438 541.304688 C 373.152344 539.097656 369.085938 536.792969 365.078125 534.390625 C 361.066406 531.988281 357.121094 529.488281 353.234375 526.890625 C 349.347656 524.292969 345.527344 521.597656 341.773438 518.8125 C 338.019531 516.027344 334.332031 513.152344 330.71875 510.1875 C 327.109375 507.222656 323.570312 504.167969 320.105469 501.027344 C 316.640625 497.886719 313.257812 494.664062 309.953125 491.359375 C 306.648438 488.050781 303.425781 484.667969 300.285156 481.203125 C 297.148438 477.738281 294.09375 474.199219 291.128906 470.585938 C 288.164062 466.96875 285.289062 463.285156 282.503906 459.53125 C 279.722656 455.773438 277.03125 451.953125 274.433594 448.066406 C 271.835938 444.175781 269.335938 440.226562 266.933594 436.21875 C 264.53125 432.207031 262.226562 428.140625 260.023438 424.015625 C 257.820312 419.894531 255.71875 415.71875 253.722656 411.492188 C 251.722656 407.265625 249.828125 402.992188 248.039062 398.671875 C 246.25 394.351562 244.570312 389.992188 242.996094 385.589844 C 241.421875 381.1875 239.953125 376.746094 238.597656 372.273438 C 237.242188 367.796875 235.996094 363.292969 234.859375 358.757812 C 233.722656 354.222656 232.699219 349.660156 231.789062 345.078125 C 230.875 340.492188 230.078125 335.886719 229.390625 331.261719 C 228.703125 326.636719 228.132812 321.996094 227.675781 317.34375 C 227.214844 312.6875 226.871094 308.027344 226.644531 303.359375 C 226.414062 298.6875 226.300781 294.015625 226.300781 289.339844 C 226.300781 284.664062 226.414062 279.992188 226.644531 275.320312 C 226.871094 270.652344 227.214844 265.988281 227.675781 261.335938 C 228.132812 256.683594 228.703125 252.042969 229.390625 247.417969 C 230.078125 242.792969 230.875 238.1875 231.789062 233.601562 C 232.699219 229.015625 233.722656 224.457031 234.859375 219.921875 C 235.996094 215.382812 237.242188 210.878906 238.597656 206.40625 C 239.953125 201.929688 241.421875 197.492188 242.996094 193.089844 C 244.570312 188.6875 246.25 184.328125 248.039062 180.007812 C 249.828125 175.6875 251.722656 171.414062 253.722656 167.1875 C 255.71875 162.960938 257.820312 158.785156 260.023438 154.660156 C 262.226562 150.539062 264.53125 146.472656 266.933594 142.460938 C 269.335938 138.449219 271.835938 134.5 274.433594 130.613281 C 277.03125 126.726562 279.722656 122.90625 282.503906 119.148438 C 285.289062 115.394531 288.164062 111.707031 291.128906 108.09375 C 294.09375 104.480469 297.148438 100.941406 300.285156 97.476562 C 303.425781 94.011719 306.648438 90.625 309.953125 87.320312 C 313.257812 84.015625 316.640625 80.789062 320.105469 77.652344 C 323.570312 74.511719 327.109375 71.457031 330.71875 68.492188 C 334.332031 65.523438 338.019531 62.648438 341.773438 59.863281 C 345.527344 57.078125 349.347656 54.386719 353.234375 51.789062 C 357.121094 49.191406 361.066406 46.691406 365.078125 44.289062 C 369.085938 41.882812 373.152344 39.578125 377.273438 37.375 C 381.398438 35.171875 385.570312 33.070312 389.796875 31.070312 C 394.019531 29.070312 398.292969 27.175781 402.613281 25.386719 C 406.929688 23.597656 411.289062 21.917969 415.691406 20.339844 C 420.09375 18.765625 424.527344 17.300781 429 15.941406 C 433.476562 14.585938 437.976562 13.339844 442.511719 12.203125 C 447.046875 11.066406 451.605469 10.042969 456.191406 9.128906 C 460.773438 8.21875 465.378906 7.417969 470.003906 6.734375 C 474.625 6.046875 479.265625 5.476562 483.914062 5.015625 C 488.566406 4.558594 493.226562 4.214844 497.894531 3.984375 C 502.566406 3.753906 507.234375 3.640625 511.910156 3.640625 C 516.585938 3.640625 521.253906 3.753906 525.925781 3.984375 C 530.59375 4.214844 535.253906 4.558594 539.90625 5.015625 C 544.554688 5.476562 549.195312 6.046875 553.816406 6.734375 C 558.441406 7.417969 563.046875 8.21875 567.628906 9.128906 C 572.214844 10.042969 576.773438 11.066406 581.308594 12.203125 C 585.84375 13.339844 590.34375 14.585938 594.820312 15.941406 C 599.292969 17.300781 603.726562 18.765625 608.128906 20.339844 C 612.53125 21.917969 616.890625 23.597656 621.207031 25.386719 C 625.527344 27.175781 629.800781 29.070312 634.023438 31.070312 C 638.25 33.070312 642.421875 35.171875 646.546875 37.375 C 650.667969 39.578125 654.734375 41.882812 658.742188 44.289062 C 662.753906 46.691406 666.699219 49.191406 670.585938 51.789062 C 674.472656 54.386719 678.292969 57.078125 682.046875 59.863281 C 685.800781 62.648438 689.488281 65.523438 693.101562 68.492188 C 696.710938 71.457031 700.25 74.511719 703.714844 77.652344 C 707.179688 80.789062 710.5625 84.015625 713.867188 87.320312 C 717.171875 90.625 720.394531 94.011719 723.535156 97.476562 C 726.671875 100.941406 729.726562 104.480469 732.691406 108.09375 C 735.65625 111.707031 738.53125 115.394531 741.316406 119.148438 C 744.097656 122.90625 746.789062 126.726562 749.386719 130.613281 C 751.984375 134.5 754.484375 138.449219 756.886719 142.460938 C 759.289062 146.472656 761.59375 150.539062 763.796875 154.660156 C 766 158.785156 768.101562 162.960938 770.097656 167.1875 C 772.097656 171.414062 773.992188 175.6875 775.78125 180.007812 C 777.570312 184.328125 779.25 188.6875 780.824219 193.089844 C 782.398438 197.492188 783.867188 201.929688 785.222656 206.40625 C 786.578125 210.878906 787.824219 215.382812 788.960938 219.921875 C 790.097656 224.457031 791.121094 229.015625 792.03125 233.601562 C 792.945312 238.1875 793.742188 242.792969 794.429688 247.417969 C 795.117188 252.042969 795.6875 256.683594 796.144531 261.335938 C 796.605469 265.988281 796.949219 270.652344 797.175781 275.320312 C 797.40625 279.992188 797.519531 284.664062 797.519531 289.339844 Z M 797.519531 289.339844 "/></g><g clip-rule="nonzero" clip-path="url(#c47a2969d8)"><path style=" stroke:none;fill-rule:nonzero;fill:#4c5aa5;fill-opacity:1;" d="M 703.804688 500.933594 C 683.277344 519.683594 660.515625 535.308594 635.078125 546.914062 C 628.832031 550.039062 622.136719 552.71875 615.445312 555.394531 C 583.3125 567.894531 548.503906 575.039062 511.910156 575.039062 C 475.316406 575.039062 440.507812 568.339844 408.375 555.394531 C 401.683594 552.71875 394.988281 550.039062 388.742188 546.914062 C 363.75 534.859375 340.542969 519.238281 320.015625 500.933594 C 322.246094 475.9375 324.925781 455.402344 324.925781 455.402344 C 324.925781 454.507812 324.925781 453.617188 325.371094 453.167969 C 329.386719 415.226562 357.054688 383.976562 394.097656 374.601562 C 405.699219 371.476562 418.640625 367.460938 422.210938 366.121094 C 475.761719 349.15625 467.285156 353.621094 467.285156 289.785156 L 556.984375 289.785156 L 556.984375 335.765625 C 556.984375 336.210938 556.984375 337.105469 556.984375 337.550781 C 556.984375 340.230469 558.320312 343.800781 560.105469 346.480469 C 562.785156 350.496094 567.246094 353.621094 567.695312 353.621094 C 577.066406 358.085938 619.90625 371.925781 620.800781 371.925781 C 625.261719 373.710938 690.863281 384.421875 698.449219 453.167969 C 698.449219 454.0625 698.449219 454.953125 698.894531 455.402344 C 698.894531 455.402344 701.574219 475.9375 703.804688 500.933594 Z M 703.804688 500.933594 "/></g><path style=" stroke:none;fill-rule:nonzero;fill:#f1b97c;fill-opacity:1;" d="M 615.890625 370.136719 C 597.59375 421.476562 568.140625 469.238281 527.082031 510.308594 L 511.910156 525.488281 L 496.738281 510.308594 C 455.679688 469.238281 426.226562 421.027344 407.929688 370.136719 C 478.441406 348.710938 466.835938 353.175781 466.835938 289.339844 L 556.535156 289.339844 C 556.535156 347.816406 552.519531 347.816406 578.402344 357.640625 C 590.898438 362.101562 603.394531 366.566406 615.890625 370.136719 Z M 615.890625 370.136719 "/><path style=" stroke:none;fill-rule:nonzero;fill:#fcfcfc;fill-opacity:1;" d="M 620.800781 371.476562 C 620.351562 371.476562 609.640625 368.351562 609.195312 367.90625 C 600.269531 392.457031 589.113281 416.117188 575.28125 437.992188 C 560.105469 462.097656 542.257812 484.863281 521.726562 505.398438 L 511.464844 515.664062 L 501.199219 505.398438 C 461.480469 465.667969 432.027344 418.796875 413.730469 367.90625 C 410.609375 368.800781 404.804688 370.585938 400.789062 371.925781 C 419.980469 425.046875 449.878906 473.703125 491.382812 515.21875 L 511.910156 534.859375 L 531.546875 515.21875 C 552.964844 493.792969 571.710938 470.132812 587.328125 444.6875 C 589.113281 441.5625 590.898438 438.4375 592.683594 435.3125 C 604.289062 415.226562 614.105469 394.242188 621.691406 371.925781 C 621.691406 371.925781 621.246094 371.925781 620.800781 371.476562 Z M 620.800781 371.476562 "/><path style=" stroke:none;fill-rule:nonzero;fill:#42539b;fill-opacity:1;" d="M 635.527344 499.148438 L 635.527344 546.914062 C 629.277344 550.039062 622.585938 552.71875 615.890625 555.394531 Z M 635.527344 499.148438 "/><path style=" stroke:none;fill-rule:nonzero;fill:#42539b;fill-opacity:1;" d="M 408.375 555.394531 C 401.683594 552.71875 394.988281 550.039062 388.742188 546.914062 L 388.742188 499.148438 Z M 408.375 555.394531 "/><path style=" stroke:none;fill-rule:nonzero;fill:#343843;fill-opacity:1;" d="M 620.800781 371.925781 C 609.195312 383.085938 594.914062 404.511719 592.683594 422.8125 C 592.238281 427.277344 592.238281 431.296875 593.128906 435.757812 C 594.023438 440.222656 596.253906 444.6875 599.378906 449.152344 C 599.378906 449.152344 594.46875 447.8125 587.328125 445.132812 C 585.542969 444.242188 583.3125 443.347656 581.082031 442.457031 C 579.296875 441.5625 577.066406 440.222656 575.28125 439.332031 C 554.304688 426.832031 531.992188 400.941406 567.246094 354.066406 C 560.554688 350.496094 556.535156 343.800781 556.535156 336.210938 L 556.535156 289.339844 L 466.835938 289.339844 C 466.835938 356.300781 474.421875 348.710938 417.746094 367.011719 C 415.515625 356.746094 408.824219 334.425781 389.632812 287.554688 C 389.632812 287.554688 359.285156 209.878906 401.683594 106.3125 C 401.683594 106.3125 415.515625 41.585938 449.433594 50.511719 C 449.433594 50.511719 541.808594 0.960938 604.734375 73.28125 C 604.734375 73.28125 656.945312 124.617188 636.863281 189.34375 C 661.410156 230.414062 663.640625 307.640625 620.800781 371.925781 Z M 620.800781 371.925781 "/><path style=" stroke:none;fill-rule:nonzero;fill:#f1b97c;fill-opacity:1;" d="M 387.523438 205.886719 C 387.265625 204.789062 387.046875 203.6875 386.855469 202.582031 C 386.667969 201.476562 386.511719 200.371094 386.390625 199.265625 C 386.269531 198.160156 386.183594 197.058594 386.128906 195.96875 C 386.074219 194.875 386.058594 193.789062 386.074219 192.71875 C 386.089844 191.648438 386.140625 190.59375 386.222656 189.554688 C 386.308594 188.515625 386.425781 187.5 386.578125 186.503906 C 386.730469 185.503906 386.917969 184.535156 387.136719 183.589844 C 387.355469 182.648438 387.605469 181.734375 387.890625 180.851562 C 388.171875 179.96875 388.488281 179.121094 388.832031 178.308594 C 389.175781 177.492188 389.550781 176.71875 389.953125 175.984375 C 390.359375 175.25 390.789062 174.554688 391.246094 173.902344 C 391.703125 173.253906 392.1875 172.648438 392.695312 172.085938 C 393.203125 171.527344 393.734375 171.015625 394.285156 170.550781 C 394.839844 170.089844 395.410156 169.675781 396.003906 169.3125 C 396.597656 168.949219 397.207031 168.636719 397.832031 168.378906 C 398.460938 168.121094 399.101562 167.914062 399.757812 167.761719 C 400.410156 167.613281 401.078125 167.511719 401.753906 167.46875 C 402.429688 167.425781 403.113281 167.4375 403.808594 167.5 C 404.5 167.566406 405.195312 167.6875 405.894531 167.859375 C 406.597656 168.03125 407.296875 168.257812 408 168.535156 C 408.703125 168.816406 409.402344 169.148438 410.101562 169.53125 C 410.796875 169.914062 411.488281 170.347656 412.175781 170.828125 C 412.859375 171.3125 413.539062 171.84375 414.203125 172.421875 C 414.871094 173 415.527344 173.621094 416.171875 174.289062 C 416.8125 174.957031 417.441406 175.667969 418.054688 176.417969 C 418.664062 177.171875 419.257812 177.960938 419.832031 178.789062 C 420.410156 179.617188 420.964844 180.476562 421.496094 181.371094 C 422.027344 182.269531 422.539062 183.191406 423.023438 184.148438 C 423.507812 185.101562 423.96875 186.082031 424.402344 187.089844 C 424.835938 188.09375 425.242188 189.121094 425.617188 190.164062 C 425.996094 191.210938 426.34375 192.273438 426.660156 193.347656 C 426.976562 194.425781 427.261719 195.511719 427.515625 196.609375 C 427.769531 197.707031 427.992188 198.808594 428.179688 199.914062 C 428.371094 201.019531 428.523438 202.125 428.648438 203.230469 C 428.769531 204.335938 428.855469 205.433594 428.910156 206.527344 C 428.960938 207.621094 428.980469 208.703125 428.964844 209.777344 C 428.949219 210.847656 428.898438 211.902344 428.816406 212.941406 C 428.730469 213.980469 428.613281 214.996094 428.460938 215.992188 C 428.308594 216.988281 428.121094 217.960938 427.902344 218.90625 C 427.683594 219.847656 427.433594 220.761719 427.148438 221.644531 C 426.863281 222.527344 426.550781 223.375 426.207031 224.1875 C 425.859375 225.003906 425.488281 225.777344 425.082031 226.511719 C 424.679688 227.246094 424.25 227.941406 423.792969 228.59375 C 423.335938 229.242188 422.851562 229.847656 422.34375 230.410156 C 421.835938 230.96875 421.304688 231.480469 420.753906 231.945312 C 420.199219 232.40625 419.625 232.820312 419.035156 233.183594 C 418.441406 233.546875 417.832031 233.859375 417.203125 234.117188 C 416.578125 234.375 415.9375 234.582031 415.28125 234.734375 C 414.625 234.882812 413.960938 234.980469 413.285156 235.027344 C 412.609375 235.070312 411.921875 235.058594 411.230469 234.992188 C 410.539062 234.929688 409.84375 234.808594 409.140625 234.636719 C 408.441406 234.464844 407.742188 234.238281 407.039062 233.957031 C 406.335938 233.679688 405.636719 233.347656 404.9375 232.964844 C 404.242188 232.582031 403.550781 232.148438 402.863281 231.667969 C 402.175781 231.183594 401.5 230.652344 400.832031 230.074219 C 400.164062 229.496094 399.511719 228.875 398.867188 228.207031 C 398.226562 227.539062 397.597656 226.828125 396.984375 226.074219 C 396.375 225.324219 395.78125 224.535156 395.203125 223.707031 C 394.628906 222.878906 394.074219 222.019531 393.542969 221.125 C 393.007812 220.226562 392.5 219.300781 392.015625 218.347656 C 391.527344 217.390625 391.070312 216.414062 390.636719 215.40625 C 390.203125 214.402344 389.796875 213.375 389.421875 212.332031 C 389.042969 211.285156 388.695312 210.222656 388.378906 209.144531 C 388.0625 208.070312 387.777344 206.984375 387.523438 205.886719 Z M 387.523438 205.886719 "/><path style=" stroke:none;fill-rule:nonzero;fill:#fcfcfc;fill-opacity:1;" d="M 408.824219 223.269531 C 408.824219 223.566406 408.792969 223.855469 408.738281 224.140625 C 408.679688 224.429688 408.59375 224.707031 408.484375 224.980469 C 408.371094 225.25 408.234375 225.507812 408.070312 225.75 C 407.90625 225.996094 407.722656 226.222656 407.515625 226.429688 C 407.308594 226.636719 407.082031 226.820312 406.839844 226.984375 C 406.59375 227.144531 406.339844 227.285156 406.066406 227.394531 C 405.796875 227.507812 405.519531 227.59375 405.230469 227.648438 C 404.941406 227.707031 404.652344 227.734375 404.359375 227.734375 C 404.066406 227.734375 403.777344 227.707031 403.488281 227.648438 C 403.203125 227.59375 402.921875 227.507812 402.652344 227.394531 C 402.382812 227.285156 402.125 227.144531 401.878906 226.984375 C 401.636719 226.820312 401.410156 226.636719 401.203125 226.429688 C 400.996094 226.222656 400.8125 225.996094 400.648438 225.75 C 400.488281 225.507812 400.347656 225.25 400.238281 224.980469 C 400.125 224.707031 400.039062 224.429688 399.984375 224.140625 C 399.925781 223.855469 399.898438 223.566406 399.898438 223.269531 C 399.898438 222.976562 399.925781 222.6875 399.984375 222.402344 C 400.039062 222.113281 400.125 221.832031 400.238281 221.5625 C 400.347656 221.292969 400.488281 221.035156 400.648438 220.792969 C 400.8125 220.546875 400.996094 220.320312 401.203125 220.113281 C 401.410156 219.90625 401.636719 219.722656 401.878906 219.558594 C 402.125 219.398438 402.382812 219.257812 402.652344 219.148438 C 402.921875 219.035156 403.203125 218.949219 403.488281 218.894531 C 403.777344 218.835938 404.066406 218.808594 404.359375 218.808594 C 404.652344 218.808594 404.941406 218.835938 405.230469 218.894531 C 405.519531 218.949219 405.796875 219.035156 406.066406 219.148438 C 406.339844 219.257812 406.59375 219.398438 406.839844 219.558594 C 407.082031 219.722656 407.308594 219.90625 407.515625 220.113281 C 407.722656 220.320312 407.90625 220.546875 408.070312 220.792969 C 408.234375 221.035156 408.371094 221.292969 408.484375 221.5625 C 408.59375 221.832031 408.679688 222.113281 408.738281 222.402344 C 408.792969 222.6875 408.824219 222.976562 408.824219 223.269531 Z M 408.824219 223.269531 "/><path style=" stroke:none;fill-rule:nonzero;fill:#f8cfa3;fill-opacity:1;" d="M 618.121094 165.238281 C 618.121094 226.394531 564.570312 328.621094 511.019531 328.621094 C 457.464844 328.621094 403.914062 226.394531 403.914062 165.238281 C 403.914062 104.082031 452.109375 58.546875 511.019531 58.546875 C 569.925781 58.996094 618.121094 104.527344 618.121094 165.238281 Z M 618.121094 165.238281 "/><path style=" stroke:none;fill-rule:nonzero;fill:#343843;fill-opacity:1;" d="M 439.167969 98.726562 C 439.167969 98.726562 450.773438 146.042969 531.992188 166.132812 C 549.84375 170.597656 565.910156 179.523438 578.851562 192.023438 C 589.113281 202.289062 598.933594 216.128906 602.054688 233.539062 L 620.800781 243.359375 L 628.832031 130.867188 C 628.832031 130.867188 578.402344 58.546875 579.296875 56.316406 C 580.1875 54.085938 500.753906 50.511719 498.523438 49.621094 C 496.289062 48.726562 438.722656 58.546875 438.722656 58.546875 L 416.410156 85.332031 L 403.46875 127.292969 L 401.683594 167.023438 C 402.574219 167.472656 427.121094 159.882812 439.167969 98.726562 Z M 439.167969 98.726562 "/></g></svg>