<svg xmlns="http://www.w3.org/2000/svg" xmlns:xlink="http://www.w3.org/1999/xlink" width="1366" zoomAndPan="magnify" viewBox="0 0 1024.5 576" height="768" preserveAspectRatio="xMidYMid meet" version="1.2"><defs><clipPath id="9058e21c20"><path d="M 175.8125 83 L 751 83 L 751 575.859375 L 175.8125 575.859375 Z M 175.8125 83 "/></clipPath></defs><g id="5d8edf9e36"><path style=" stroke:none;fill-rule:evenodd;fill:#8c52ff;fill-opacity:1;" d="M 841.191406 399.359375 L 772.714844 280.789062 C 775.0625 278.824219 777.34375 276.789062 779.5625 274.6875 C 781.78125 272.582031 783.933594 270.410156 786.019531 268.175781 C 788.101562 265.9375 790.117188 263.636719 792.058594 261.273438 C 794 258.914062 795.867188 256.492188 797.660156 254.015625 C 799.453125 251.539062 801.167969 249.007812 802.804688 246.421875 C 804.441406 243.839844 805.996094 241.207031 807.46875 238.527344 C 808.941406 235.847656 810.332031 233.125 811.636719 230.359375 C 812.941406 227.59375 814.160156 224.789062 815.292969 221.949219 C 816.421875 219.109375 817.464844 216.234375 818.421875 213.328125 C 819.375 210.421875 820.238281 207.492188 821.007812 204.53125 C 821.78125 201.574219 822.460938 198.59375 823.050781 195.589844 C 823.636719 192.589844 824.132812 189.574219 824.535156 186.542969 C 824.933594 183.511719 825.242188 180.46875 825.457031 177.417969 C 825.667969 174.367188 825.789062 171.3125 825.8125 168.253906 C 825.835938 165.195312 825.765625 162.140625 825.601562 159.085938 C 825.4375 156.035156 825.175781 152.988281 824.824219 149.949219 C 824.46875 146.914062 824.023438 143.886719 823.484375 140.878906 C 822.941406 137.867188 822.308594 134.878906 821.585938 131.90625 C 820.859375 128.9375 820.042969 125.988281 819.136719 123.070312 C 818.226562 120.148438 817.230469 117.257812 816.144531 114.402344 C 815.058594 111.542969 813.882812 108.71875 812.625 105.933594 C 811.363281 103.148438 810.015625 100.402344 808.585938 97.699219 C 807.15625 94.996094 805.644531 92.339844 804.046875 89.730469 C 802.453125 87.121094 800.777344 84.566406 799.023438 82.058594 C 797.273438 79.554688 795.441406 77.105469 793.539062 74.710938 C 791.632812 72.320312 789.65625 69.988281 787.605469 67.71875 C 785.558594 65.449219 783.441406 63.242188 781.253906 61.101562 C 779.070312 58.964844 776.820312 56.894531 774.507812 54.894531 C 772.191406 52.894531 769.820312 50.96875 767.386719 49.113281 C 764.953125 47.261719 762.46875 45.484375 759.925781 43.785156 C 757.382812 42.085938 754.789062 40.46875 752.148438 38.929688 C 749.503906 37.390625 746.816406 35.933594 744.082031 34.558594 C 741.351562 33.1875 738.578125 31.902344 735.765625 30.699219 C 732.953125 29.5 730.105469 28.386719 727.226562 27.359375 C 724.34375 26.335938 721.433594 25.398438 718.496094 24.554688 C 715.554688 23.710938 712.59375 22.957031 709.605469 22.296875 C 706.621094 21.632812 703.617188 21.066406 700.597656 20.589844 C 697.574219 20.113281 694.542969 19.730469 691.5 19.441406 C 688.453125 19.152344 685.402344 18.960938 682.347656 18.859375 C 679.289062 18.761719 676.234375 18.757812 673.175781 18.84375 C 670.121094 18.933594 667.070312 19.117188 664.023438 19.398438 C 660.976562 19.675781 657.945312 20.046875 654.921875 20.515625 C 651.898438 20.980469 648.894531 21.539062 645.90625 22.191406 C 642.917969 22.84375 639.953125 23.585938 637.011719 24.421875 C 634.070312 25.257812 631.15625 26.183594 628.269531 27.199219 C 625.386719 28.214844 622.535156 29.316406 619.71875 30.507812 C 616.902344 31.703125 614.125 32.980469 611.390625 34.34375 C 608.652344 35.707031 605.960938 37.152344 603.3125 38.683594 C 600.664062 40.214844 598.066406 41.824219 595.515625 43.515625 C 592.96875 45.207031 590.476562 46.976562 588.035156 48.820312 C 585.597656 50.667969 583.21875 52.585938 580.898438 54.578125 C 578.578125 56.570312 576.324219 58.632812 574.128906 60.765625 C 571.9375 62.898438 569.8125 65.09375 567.757812 67.359375 C 565.699219 69.621094 563.714844 71.945312 561.804688 74.332031 C 559.890625 76.71875 558.054688 79.160156 556.292969 81.660156 C 554.53125 84.160156 552.847656 86.714844 551.246094 89.316406 C 549.640625 91.921875 548.121094 94.574219 546.679688 97.269531 C 545.238281 99.96875 543.886719 102.710938 542.613281 105.492188 C 541.34375 108.273438 540.164062 111.09375 539.066406 113.949219 C 537.972656 116.800781 536.964844 119.6875 536.046875 122.605469 C 535.128906 125.523438 534.304688 128.464844 533.570312 131.433594 C 532.835938 134.402344 532.191406 137.390625 531.640625 140.402344 C 531.089844 143.410156 530.632812 146.429688 530.269531 149.46875 C 529.90625 152.503906 529.640625 155.550781 529.464844 158.601562 C 529.289062 161.65625 529.210938 164.710938 529.222656 167.769531 C 529.238281 170.828125 529.347656 173.882812 529.550781 176.933594 C 529.753906 179.984375 530.050781 183.027344 530.441406 186.0625 C 530.832031 189.09375 531.316406 192.113281 531.894531 195.113281 C 532.472656 198.117188 533.144531 201.101562 533.90625 204.0625 C 534.667969 207.023438 535.523438 209.957031 536.46875 212.867188 C 537.410156 215.777344 538.445312 218.652344 539.566406 221.496094 C 540.691406 224.34375 541.898438 227.148438 543.195312 229.921875 C 544.492188 232.691406 545.871094 235.417969 547.335938 238.101562 C 548.800781 240.785156 550.347656 243.421875 551.972656 246.011719 C 553.601562 248.601562 555.308594 251.136719 557.09375 253.621094 C 558.878906 256.105469 560.738281 258.53125 562.671875 260.898438 C 564.605469 263.269531 566.613281 265.574219 568.691406 267.816406 C 570.765625 270.0625 572.914062 272.242188 575.125 274.351562 C 577.335938 276.464844 579.613281 278.503906 581.949219 280.476562 C 584.289062 282.445312 586.6875 284.34375 589.140625 286.164062 C 591.597656 287.988281 594.109375 289.734375 596.671875 291.398438 C 599.234375 293.066406 601.847656 294.652344 604.511719 296.160156 C 607.171875 297.664062 609.878906 299.085938 612.628906 300.425781 C 615.378906 301.761719 618.164062 303.015625 620.992188 304.179688 C 623.820312 305.347656 626.679688 306.425781 629.574219 307.414062 C 632.46875 308.402344 635.390625 309.300781 638.339844 310.109375 C 641.289062 310.914062 644.261719 311.632812 647.253906 312.253906 C 650.25 312.878906 653.257812 313.410156 656.285156 313.847656 C 659.3125 314.285156 662.351562 314.628906 665.398438 314.878906 C 668.445312 315.128906 671.5 315.285156 674.558594 315.347656 C 677.613281 315.40625 680.671875 315.375 683.726562 315.246094 C 686.78125 315.117188 689.832031 314.894531 692.871094 314.578125 C 695.914062 314.261719 698.941406 313.851562 701.960938 313.347656 C 704.976562 312.84375 707.972656 312.246094 710.953125 311.558594 C 713.933594 310.867188 716.886719 310.089844 719.820312 309.214844 C 722.75 308.34375 725.652344 307.382812 728.523438 306.328125 L 796.960938 424.898438 C 797.378906 425.621094 797.832031 426.324219 798.320312 427.003906 C 798.808594 427.679688 799.328125 428.335938 799.878906 428.964844 C 800.429688 429.589844 801.011719 430.191406 801.621094 430.761719 C 802.234375 431.332031 802.871094 431.875 803.535156 432.382812 C 804.199219 432.890625 804.882812 433.363281 805.59375 433.804688 C 806.304688 434.246094 807.035156 434.652344 807.785156 435.023438 C 808.535156 435.390625 809.300781 435.722656 810.082031 436.015625 C 810.867188 436.3125 811.660156 436.566406 812.46875 436.78125 C 813.277344 437 814.09375 437.175781 814.917969 437.308594 C 815.742188 437.445312 816.570312 437.542969 817.40625 437.59375 C 818.242188 437.648438 819.074219 437.664062 819.910156 437.636719 C 820.746094 437.609375 821.578125 437.539062 822.40625 437.429688 C 823.238281 437.320312 824.058594 437.171875 824.871094 436.980469 C 825.6875 436.792969 826.488281 436.5625 827.28125 436.292969 C 828.074219 436.023438 828.847656 435.71875 829.609375 435.371094 C 830.371094 435.027344 831.113281 434.644531 831.839844 434.226562 C 832.5625 433.808594 833.265625 433.355469 833.945312 432.871094 C 834.625 432.382812 835.277344 431.863281 835.90625 431.3125 C 836.535156 430.761719 837.132812 430.179688 837.707031 429.570312 C 838.277344 428.960938 838.816406 428.324219 839.328125 427.660156 C 839.835938 426.996094 840.3125 426.3125 840.753906 425.601562 C 841.195312 424.890625 841.601562 424.160156 841.96875 423.410156 C 842.339844 422.660156 842.671875 421.894531 842.96875 421.113281 C 843.261719 420.332031 843.515625 419.535156 843.734375 418.730469 C 843.949219 417.921875 844.125 417.105469 844.261719 416.28125 C 844.398438 415.457031 844.496094 414.625 844.550781 413.792969 C 844.605469 412.957031 844.621094 412.121094 844.59375 411.289062 C 844.566406 410.453125 844.496094 409.621094 844.390625 408.789062 C 844.28125 407.960938 844.132812 407.140625 843.941406 406.324219 C 843.753906 405.511719 843.523438 404.707031 843.253906 403.917969 C 842.988281 403.125 842.679688 402.347656 842.335938 401.585938 C 841.992188 400.824219 841.609375 400.082031 841.191406 399.359375 Z M 735.378906 267.125 C 733.738281 268.070312 732.078125 268.976562 730.394531 269.839844 C 728.710938 270.703125 727.007812 271.527344 725.285156 272.308594 C 723.558594 273.089844 721.816406 273.828125 720.058594 274.523438 C 718.296875 275.21875 716.519531 275.871094 714.730469 276.480469 C 712.9375 277.085938 711.132812 277.652344 709.3125 278.171875 C 707.492188 278.691406 705.660156 279.164062 703.816406 279.59375 C 701.972656 280.023438 700.121094 280.410156 698.257812 280.75 C 696.398438 281.085938 694.527344 281.378906 692.652344 281.625 C 690.777344 281.875 688.894531 282.074219 687.007812 282.230469 C 685.121094 282.382812 683.234375 282.492188 681.34375 282.554688 C 679.449219 282.617188 677.558594 282.632812 675.667969 282.601562 C 673.773438 282.570312 671.882812 282.492188 669.996094 282.367188 C 668.105469 282.246094 666.222656 282.074219 664.34375 281.859375 C 662.460938 281.640625 660.589844 281.378906 658.722656 281.070312 C 656.855469 280.761719 654.996094 280.410156 653.144531 280.007812 C 651.296875 279.609375 649.457031 279.164062 647.628906 278.675781 C 645.800781 278.1875 643.984375 277.652344 642.183594 277.074219 C 640.382812 276.492188 638.597656 275.871094 636.824219 275.203125 C 635.054688 274.539062 633.300781 273.828125 631.5625 273.074219 C 629.828125 272.320312 628.109375 271.527344 626.414062 270.691406 C 624.714844 269.851562 623.039062 268.976562 621.386719 268.054688 C 619.730469 267.136719 618.101562 266.175781 616.492188 265.175781 C 614.886719 264.179688 613.304688 263.140625 611.75 262.0625 C 610.191406 260.984375 608.664062 259.871094 607.164062 258.71875 C 605.660156 257.566406 604.1875 256.378906 602.746094 255.15625 C 601.300781 253.929688 599.890625 252.671875 598.507812 251.378906 C 597.128906 250.082031 595.777344 248.757812 594.460938 247.398438 C 593.148438 246.035156 591.863281 244.644531 590.617188 243.222656 C 589.367188 241.800781 588.15625 240.347656 586.980469 238.863281 C 585.804688 237.382812 584.664062 235.871094 583.5625 234.332031 C 582.460938 232.796875 581.394531 231.230469 580.371094 229.640625 C 579.34375 228.050781 578.359375 226.433594 577.414062 224.796875 C 576.464844 223.15625 575.5625 221.496094 574.695312 219.8125 C 573.832031 218.128906 573.007812 216.425781 572.226562 214.703125 C 571.445312 212.976562 570.707031 211.234375 570.011719 209.476562 C 569.316406 207.714844 568.664062 205.941406 568.058594 204.148438 C 567.449219 202.355469 566.882812 200.550781 566.363281 198.730469 C 565.84375 196.910156 565.371094 195.078125 564.941406 193.234375 C 564.511719 191.390625 564.128906 189.539062 563.789062 187.679688 C 563.449219 185.816406 563.15625 183.945312 562.910156 182.070312 C 562.664062 180.195312 562.460938 178.3125 562.308594 176.425781 C 562.152344 174.539062 562.042969 172.652344 561.980469 170.761719 C 561.921875 168.867188 561.90625 166.976562 561.9375 165.085938 C 561.964844 163.191406 562.042969 161.300781 562.167969 159.414062 C 562.292969 157.523438 562.460938 155.640625 562.679688 153.761719 C 562.894531 151.878906 563.15625 150.007812 563.464844 148.140625 C 563.773438 146.273438 564.128906 144.414062 564.527344 142.5625 C 564.925781 140.714844 565.371094 138.875 565.859375 137.046875 C 566.351562 135.21875 566.886719 133.40625 567.464844 131.601562 C 568.042969 129.800781 568.664062 128.015625 569.332031 126.242188 C 570 124.472656 570.707031 122.71875 571.460938 120.980469 C 572.214844 119.246094 573.007812 117.527344 573.847656 115.832031 C 574.683594 114.132812 575.5625 112.457031 576.480469 110.804688 C 577.398438 109.148438 578.359375 107.519531 579.359375 105.910156 C 580.359375 104.304688 581.394531 102.722656 582.472656 101.167969 C 583.550781 99.609375 584.664062 98.082031 585.816406 96.582031 C 586.96875 95.078125 588.15625 93.605469 589.382812 92.164062 C 590.605469 90.71875 591.863281 89.308594 593.160156 87.925781 C 594.453125 86.546875 595.777344 85.195312 597.140625 83.882812 C 598.5 82.566406 599.890625 81.28125 601.3125 80.035156 C 602.734375 78.789062 604.1875 77.574219 605.671875 76.398438 C 607.152344 75.222656 608.664062 74.082031 610.203125 72.980469 C 611.742188 71.878906 613.304688 70.8125 614.894531 69.789062 C 616.484375 68.761719 618.101562 67.777344 619.738281 66.832031 C 621.378906 65.882812 623.039062 64.980469 624.722656 64.113281 C 626.40625 63.25 628.109375 62.425781 629.835938 61.644531 C 631.558594 60.863281 633.300781 60.125 635.058594 59.429688 C 636.820312 58.734375 638.597656 58.082031 640.386719 57.476562 C 642.179688 56.867188 643.988281 56.304688 645.804688 55.785156 C 647.625 55.261719 649.457031 54.789062 651.300781 54.359375 C 653.144531 53.929688 654.996094 53.546875 656.859375 53.207031 C 658.71875 52.867188 660.589844 52.574219 662.464844 52.328125 C 664.339844 52.082031 666.222656 51.878906 668.109375 51.726562 C 669.996094 51.570312 671.882812 51.460938 673.777344 51.398438 C 675.667969 51.339844 677.558594 51.324219 679.453125 51.355469 C 681.34375 51.382812 683.234375 51.460938 685.121094 51.585938 C 687.011719 51.710938 688.894531 51.878906 690.773438 52.097656 C 692.65625 52.3125 694.527344 52.574219 696.394531 52.882812 C 698.261719 53.191406 700.121094 53.546875 701.972656 53.945312 C 703.820312 54.34375 705.660156 54.789062 707.488281 55.277344 C 709.316406 55.769531 711.132812 56.304688 712.933594 56.882812 C 714.734375 57.460938 716.523438 58.082031 718.292969 58.75 C 720.0625 59.417969 721.816406 60.125 723.554688 60.878906 C 725.289062 61.632812 727.007812 62.425781 728.703125 63.265625 C 730.402344 64.101562 732.078125 64.980469 733.730469 65.898438 C 735.386719 66.816406 737.015625 67.777344 738.625 68.777344 C 740.230469 69.777344 741.8125 70.8125 743.367188 71.890625 C 744.925781 72.96875 746.453125 74.082031 747.957031 75.234375 C 749.457031 76.386719 750.929688 77.574219 752.371094 78.800781 C 753.816406 80.023438 755.226562 81.28125 756.609375 82.578125 C 757.988281 83.871094 759.339844 85.195312 760.65625 86.558594 C 761.972656 87.917969 763.253906 89.308594 764.5 90.730469 C 765.75 92.152344 766.960938 93.605469 768.136719 95.089844 C 769.3125 96.570312 770.453125 98.082031 771.554688 99.621094 C 772.65625 101.160156 773.722656 102.722656 774.746094 104.3125 C 775.773438 105.902344 776.757812 107.519531 777.707031 109.15625 C 778.652344 110.796875 779.558594 112.457031 780.421875 114.140625 C 781.289062 115.824219 782.109375 117.527344 782.890625 119.25 C 783.671875 120.976562 784.410156 122.71875 785.109375 124.476562 C 785.804688 126.238281 786.457031 128.011719 787.0625 129.804688 C 787.671875 131.597656 788.238281 133.402344 788.757812 135.222656 C 789.277344 137.042969 789.75 138.875 790.179688 140.71875 C 790.609375 142.5625 790.996094 144.414062 791.335938 146.277344 C 791.671875 148.136719 791.964844 150.007812 792.214844 151.882812 C 792.460938 153.757812 792.660156 155.640625 792.816406 157.527344 C 792.972656 159.414062 793.078125 161.300781 793.140625 163.195312 C 793.203125 165.085938 793.21875 166.976562 793.1875 168.871094 C 793.15625 170.761719 793.082031 172.652344 792.957031 174.542969 C 792.832031 176.429688 792.664062 178.3125 792.445312 180.195312 C 792.230469 182.074219 791.96875 183.949219 791.660156 185.816406 C 791.351562 187.683594 790.996094 189.542969 790.597656 191.390625 C 790.199219 193.242188 789.753906 195.082031 789.265625 196.910156 C 788.773438 198.738281 788.238281 200.550781 787.660156 202.355469 C 787.082031 204.15625 786.460938 205.941406 785.792969 207.714844 C 785.125 209.484375 784.417969 211.238281 783.664062 212.976562 C 782.910156 214.710938 782.117188 216.429688 781.277344 218.125 C 780.441406 219.824219 779.5625 221.5 778.644531 223.152344 C 777.722656 224.808594 776.765625 226.4375 775.765625 228.046875 C 774.765625 229.652344 773.726562 231.234375 772.648438 232.789062 C 771.574219 234.347656 770.457031 235.875 769.304688 237.375 C 768.152344 238.878906 766.964844 240.351562 765.742188 241.792969 C 764.515625 243.238281 763.257812 244.648438 761.960938 246.03125 C 760.667969 247.410156 759.34375 248.757812 757.980469 250.074219 C 756.621094 251.390625 755.230469 252.671875 753.808594 253.921875 C 752.382812 255.167969 750.929688 256.382812 749.449219 257.558594 C 747.964844 258.734375 746.457031 259.875 744.917969 260.976562 C 743.378906 262.078125 741.8125 263.140625 740.222656 264.167969 C 738.632812 265.191406 737.015625 266.175781 735.378906 267.125 Z M 595.339844 166.976562 C 653.539062 231.835938 701.539062 231.835938 759.738281 166.976562 C 701.539062 102.117188 653.578125 102.117188 595.339844 166.976562 Z M 677.558594 188.558594 C 676.851562 188.558594 676.148438 188.527344 675.445312 188.457031 C 674.742188 188.386719 674.046875 188.285156 673.351562 188.148438 C 672.660156 188.011719 671.976562 187.839844 671.300781 187.632812 C 670.625 187.429688 669.960938 187.191406 669.304688 186.921875 C 668.652344 186.652344 668.015625 186.351562 667.394531 186.019531 C 666.769531 185.6875 666.164062 185.324219 665.578125 184.933594 C 664.988281 184.539062 664.421875 184.121094 663.878906 183.671875 C 663.332031 183.226562 662.808594 182.753906 662.308594 182.253906 C 661.808594 181.753906 661.335938 181.230469 660.886719 180.6875 C 660.4375 180.140625 660.015625 179.574219 659.625 178.988281 C 659.230469 178.402344 658.867188 177.796875 658.535156 177.171875 C 658.203125 176.550781 657.898438 175.914062 657.628906 175.261719 C 657.359375 174.609375 657.121094 173.945312 656.914062 173.269531 C 656.710938 172.59375 656.539062 171.910156 656.398438 171.21875 C 656.261719 170.523438 656.15625 169.828125 656.089844 169.125 C 656.019531 168.421875 655.984375 167.714844 655.984375 167.011719 C 655.980469 166.304688 656.015625 165.601562 656.085938 164.898438 C 656.152344 164.195312 656.257812 163.496094 656.394531 162.804688 C 656.53125 162.109375 656.703125 161.425781 656.90625 160.75 C 657.113281 160.074219 657.347656 159.410156 657.617188 158.757812 C 657.886719 158.105469 658.1875 157.46875 658.523438 156.84375 C 658.855469 156.222656 659.214844 155.617188 659.609375 155.027344 C 660 154.441406 660.417969 153.875 660.867188 153.328125 C 661.316406 152.78125 661.789062 152.257812 662.289062 151.757812 C 662.785156 151.257812 663.308594 150.785156 663.855469 150.335938 C 664.398438 149.890625 664.964844 149.46875 665.554688 149.074219 C 666.140625 148.683594 666.746094 148.320312 667.367188 147.984375 C 667.988281 147.652344 668.628906 147.351562 669.277344 147.078125 C 669.929688 146.808594 670.59375 146.570312 671.269531 146.367188 C 671.945312 146.160156 672.628906 145.988281 673.324219 145.851562 C 674.015625 145.710938 674.714844 145.609375 675.417969 145.539062 C 676.117188 145.46875 676.824219 145.433594 677.53125 145.433594 C 678.234375 145.433594 678.941406 145.464844 679.644531 145.535156 C 680.347656 145.601562 681.042969 145.707031 681.738281 145.84375 C 682.429688 145.980469 683.113281 146.152344 683.789062 146.355469 C 684.464844 146.5625 685.128906 146.796875 685.78125 147.066406 C 686.433594 147.335938 687.074219 147.636719 687.695312 147.96875 C 688.320312 148.304688 688.925781 148.664062 689.511719 149.058594 C 690.097656 149.449219 690.667969 149.867188 691.210938 150.316406 C 691.757812 150.765625 692.28125 151.238281 692.78125 151.734375 C 693.28125 152.234375 693.753906 152.757812 694.203125 153.300781 C 694.652344 153.847656 695.074219 154.414062 695.464844 155 C 695.859375 155.589844 696.222656 156.191406 696.554688 156.816406 C 696.886719 157.4375 697.191406 158.074219 697.460938 158.726562 C 697.730469 159.378906 697.96875 160.042969 698.175781 160.71875 C 698.382812 161.394531 698.554688 162.078125 698.691406 162.769531 C 698.828125 163.464844 698.933594 164.160156 699.003906 164.863281 C 699.074219 165.566406 699.109375 166.269531 699.109375 166.976562 C 699.109375 167.683594 699.074219 168.386719 699.003906 169.089844 C 698.933594 169.792969 698.832031 170.492188 698.695312 171.183594 C 698.554688 171.875 698.386719 172.558594 698.179688 173.234375 C 697.976562 173.910156 697.738281 174.574219 697.46875 175.226562 C 697.199219 175.878906 696.894531 176.519531 696.5625 177.140625 C 696.230469 177.765625 695.867188 178.367188 695.476562 178.957031 C 695.085938 179.542969 694.664062 180.109375 694.21875 180.65625 C 693.769531 181.203125 693.296875 181.726562 692.796875 182.226562 C 692.296875 182.722656 691.777344 183.199219 691.230469 183.648438 C 690.683594 184.09375 690.117188 184.515625 689.53125 184.910156 C 688.945312 185.300781 688.339844 185.664062 687.71875 186 C 687.097656 186.332031 686.460938 186.632812 685.808594 186.90625 C 685.15625 187.175781 684.492188 187.414062 683.816406 187.621094 C 683.140625 187.828125 682.457031 188 681.765625 188.136719 C 681.070312 188.277344 680.375 188.382812 679.671875 188.453125 C 678.96875 188.523438 678.265625 188.558594 677.558594 188.558594 Z M 677.558594 188.558594 "/><g clip-rule="nonzero" clip-path="url(#9058e21c20)"><path style=" stroke:none;fill-rule:nonzero;fill:#ffa801;fill-opacity:1;" d="M 750.335938 381.695312 L 750.335938 445.644531 C 750.332031 446.433594 750.292969 447.222656 750.210938 448.011719 C 750.132812 448.796875 750.015625 449.578125 749.859375 450.351562 C 749.703125 451.128906 749.507812 451.894531 749.277344 452.652344 C 749.046875 453.40625 748.777344 454.148438 748.472656 454.878906 C 748.171875 455.609375 747.832031 456.324219 747.457031 457.019531 C 747.082031 457.71875 746.675781 458.394531 746.238281 459.050781 C 745.796875 459.710938 745.324219 460.34375 744.824219 460.953125 C 744.320312 461.566406 743.792969 462.152344 743.230469 462.710938 C 742.671875 463.269531 742.089844 463.800781 741.476562 464.300781 C 740.867188 464.804688 740.230469 465.273438 739.574219 465.714844 C 738.917969 466.15625 738.238281 466.5625 737.542969 466.933594 C 736.847656 467.308594 736.132812 467.648438 735.402344 467.953125 C 734.671875 468.253906 733.929688 468.523438 733.171875 468.753906 C 732.417969 468.984375 731.652344 469.179688 730.875 469.335938 C 730.101562 469.492188 729.320312 469.609375 728.53125 469.691406 C 727.746094 469.769531 726.957031 469.8125 726.167969 469.8125 L 521.914062 469.8125 L 521.914062 542.816406 L 563.671875 542.816406 C 575.816406 542.816406 585.785156 550.847656 585.785156 560.667969 L 585.785156 575.929688 L 340.386719 575.929688 L 340.386719 560.671875 C 340.386719 550.851562 350.363281 542.820312 362.503906 542.820312 L 404.257812 542.820312 L 404.257812 469.808594 L 200.007812 469.808594 C 199.21875 469.808594 198.429688 469.765625 197.644531 469.683594 C 196.859375 469.605469 196.078125 469.488281 195.304688 469.332031 C 194.527344 469.175781 193.761719 468.980469 193.007812 468.75 C 192.25 468.515625 191.507812 468.25 190.78125 467.945312 C 190.050781 467.640625 189.335938 467.304688 188.640625 466.929688 C 187.945312 466.554688 187.269531 466.148438 186.613281 465.707031 C 185.957031 465.269531 185.324219 464.796875 184.710938 464.296875 C 184.101562 463.792969 183.515625 463.261719 182.957031 462.703125 C 182.402344 462.144531 181.871094 461.558594 181.371094 460.949219 C 180.867188 460.335938 180.398438 459.703125 179.960938 459.046875 C 179.519531 458.390625 179.113281 457.710938 178.742188 457.015625 C 178.367188 456.316406 178.03125 455.605469 177.726562 454.875 C 177.425781 454.144531 177.15625 453.402344 176.925781 452.644531 C 176.699219 451.890625 176.503906 451.125 176.347656 450.351562 C 176.195312 449.574219 176.078125 448.792969 175.996094 448.007812 C 175.917969 447.222656 175.878906 446.433594 175.875 445.644531 L 175.875 107.941406 C 175.878906 107.148438 175.917969 106.363281 175.996094 105.574219 C 176.074219 104.789062 176.191406 104.007812 176.347656 103.234375 C 176.503906 102.457031 176.695312 101.691406 176.925781 100.9375 C 177.15625 100.179688 177.421875 99.4375 177.726562 98.707031 C 178.027344 97.976562 178.367188 97.265625 178.738281 96.566406 C 179.113281 95.871094 179.519531 95.191406 179.957031 94.535156 C 180.398438 93.878906 180.867188 93.246094 181.367188 92.632812 C 181.867188 92.023438 182.398438 91.4375 182.957031 90.878906 C 183.515625 90.316406 184.101562 89.789062 184.710938 89.285156 C 185.320312 88.785156 185.953125 88.3125 186.609375 87.871094 C 187.265625 87.433594 187.945312 87.023438 188.640625 86.652344 C 189.335938 86.277344 190.050781 85.9375 190.777344 85.632812 C 191.507812 85.332031 192.25 85.0625 193.007812 84.832031 C 193.761719 84.601562 194.527344 84.40625 195.300781 84.25 C 196.078125 84.09375 196.859375 83.972656 197.644531 83.894531 C 198.429688 83.8125 199.21875 83.773438 200.007812 83.769531 L 532.613281 83.769531 C 525.824219 95.621094 520.570312 108.121094 516.851562 121.261719 L 213.371094 121.261719 L 213.371094 396.996094 L 712.804688 396.996094 L 712.804688 330.386719 C 715.128906 329.890625 717.449219 329.359375 719.769531 328.75 Z M 249.339844 368.375 L 510.609375 368.375 C 511.226562 368.375 511.835938 368.3125 512.441406 368.191406 C 513.046875 368.074219 513.632812 367.894531 514.203125 367.660156 C 514.769531 367.421875 515.3125 367.132812 515.824219 366.792969 C 516.335938 366.449219 516.808594 366.0625 517.246094 365.625 C 517.679688 365.191406 518.070312 364.714844 518.414062 364.203125 C 518.753906 363.691406 519.042969 363.148438 519.28125 362.582031 C 519.515625 362.011719 519.691406 361.425781 519.8125 360.820312 C 519.933594 360.214844 519.992188 359.605469 519.992188 358.992188 C 519.992188 358.375 519.933594 357.765625 519.8125 357.160156 C 519.691406 356.554688 519.515625 355.96875 519.28125 355.398438 C 519.042969 354.832031 518.753906 354.289062 518.414062 353.777344 C 518.070312 353.265625 517.679688 352.792969 517.246094 352.355469 C 516.808594 351.921875 516.335938 351.53125 515.824219 351.1875 C 515.3125 350.847656 514.769531 350.558594 514.203125 350.320312 C 513.632812 350.085938 513.046875 349.90625 512.441406 349.789062 C 511.835938 349.667969 511.226562 349.609375 510.609375 349.609375 L 491.464844 349.609375 L 491.464844 207.285156 L 459.035156 207.285156 L 459.035156 349.609375 L 427.972656 349.609375 L 427.972656 268 L 395.503906 268 L 395.503906 349.609375 L 364.445312 349.609375 L 364.445312 242.039062 L 331.976562 242.039062 L 331.976562 349.609375 L 300.917969 349.609375 L 300.917969 296.773438 L 268.488281 296.773438 L 268.488281 349.609375 L 249.339844 349.609375 C 248.722656 349.609375 248.113281 349.667969 247.511719 349.789062 C 246.90625 349.90625 246.320312 350.085938 245.75 350.320312 C 245.179688 350.558594 244.640625 350.847656 244.128906 351.1875 C 243.617188 351.53125 243.140625 351.921875 242.707031 352.355469 C 242.269531 352.792969 241.882812 353.265625 241.539062 353.777344 C 241.195312 354.289062 240.90625 354.832031 240.671875 355.398438 C 240.4375 355.96875 240.257812 356.554688 240.136719 357.160156 C 240.019531 357.765625 239.957031 358.375 239.957031 358.992188 C 239.957031 359.605469 240.019531 360.214844 240.136719 360.820312 C 240.257812 361.425781 240.4375 362.011719 240.671875 362.582031 C 240.90625 363.148438 241.195312 363.691406 241.539062 364.203125 C 241.882812 364.714844 242.269531 365.191406 242.707031 365.625 C 243.140625 366.0625 243.617188 366.449219 244.128906 366.792969 C 244.640625 367.132812 245.179688 367.421875 245.75 367.660156 C 246.320312 367.894531 246.90625 368.074219 247.511719 368.191406 C 248.113281 368.3125 248.722656 368.375 249.339844 368.375 Z M 249.339844 173.21875 L 359.15625 173.21875 C 359.773438 173.21875 360.382812 173.160156 360.988281 173.039062 C 361.59375 172.917969 362.183594 172.738281 362.753906 172.503906 C 363.324219 172.265625 363.867188 171.976562 364.378906 171.632812 C 364.890625 171.292969 365.367188 170.902344 365.804688 170.464844 C 366.242188 170.027344 366.628906 169.554688 366.972656 169.039062 C 367.316406 168.527344 367.605469 167.984375 367.84375 167.414062 C 368.078125 166.84375 368.257812 166.253906 368.378906 165.648438 C 368.496094 165.042969 368.558594 164.433594 368.558594 163.816406 C 368.558594 163.199219 368.496094 162.585938 368.378906 161.980469 C 368.257812 161.375 368.078125 160.789062 367.84375 160.21875 C 367.605469 159.644531 367.316406 159.105469 366.972656 158.589844 C 366.628906 158.078125 366.242188 157.601562 365.804688 157.167969 C 365.367188 156.730469 364.890625 156.339844 364.378906 155.996094 C 363.867188 155.652344 363.324219 155.363281 362.753906 155.128906 C 362.183594 154.890625 361.59375 154.714844 360.988281 154.59375 C 360.382812 154.472656 359.773438 154.410156 359.15625 154.410156 L 249.339844 154.410156 C 248.722656 154.410156 248.113281 154.472656 247.507812 154.59375 C 246.902344 154.714844 246.3125 154.890625 245.742188 155.128906 C 245.171875 155.363281 244.628906 155.652344 244.117188 155.996094 C 243.601562 156.339844 243.128906 156.730469 242.691406 157.167969 C 242.253906 157.601562 241.863281 158.078125 241.523438 158.589844 C 241.179688 159.105469 240.890625 159.644531 240.652344 160.21875 C 240.417969 160.789062 240.238281 161.375 240.117188 161.980469 C 239.996094 162.585938 239.9375 163.199219 239.9375 163.816406 C 239.9375 164.433594 239.996094 165.042969 240.117188 165.648438 C 240.238281 166.253906 240.417969 166.84375 240.652344 167.414062 C 240.890625 167.984375 241.179688 168.527344 241.523438 169.039062 C 241.863281 169.554688 242.253906 170.027344 242.691406 170.464844 C 243.128906 170.902344 243.601562 171.292969 244.117188 171.632812 C 244.628906 171.976562 245.171875 172.265625 245.742188 172.503906 C 246.3125 172.738281 246.902344 172.917969 247.507812 173.039062 C 248.113281 173.160156 248.722656 173.21875 249.339844 173.21875 Z M 249.339844 209.417969 L 409.96875 209.417969 C 410.585938 209.417969 411.195312 209.359375 411.800781 209.238281 C 412.40625 209.117188 412.992188 208.941406 413.558594 208.703125 C 414.128906 208.46875 414.671875 208.179688 415.183594 207.835938 C 415.695312 207.496094 416.167969 207.105469 416.605469 206.671875 C 417.039062 206.234375 417.429688 205.761719 417.769531 205.25 C 418.113281 204.734375 418.402344 204.195312 418.636719 203.625 C 418.875 203.058594 419.050781 202.46875 419.171875 201.867188 C 419.292969 201.261719 419.351562 200.652344 419.351562 200.035156 C 419.351562 199.417969 419.292969 198.808594 419.171875 198.207031 C 419.050781 197.601562 418.875 197.015625 418.636719 196.445312 C 418.402344 195.875 418.113281 195.335938 417.769531 194.824219 C 417.429688 194.3125 417.039062 193.835938 416.605469 193.402344 C 416.167969 192.964844 415.695312 192.578125 415.183594 192.234375 C 414.671875 191.890625 414.128906 191.601562 413.558594 191.367188 C 412.992188 191.132812 412.40625 190.953125 411.800781 190.832031 C 411.195312 190.714844 410.585938 190.652344 409.96875 190.652344 L 249.339844 190.652344 C 248.722656 190.652344 248.113281 190.714844 247.511719 190.832031 C 246.90625 190.953125 246.320312 191.132812 245.75 191.367188 C 245.179688 191.601562 244.640625 191.890625 244.128906 192.234375 C 243.617188 192.578125 243.140625 192.964844 242.707031 193.402344 C 242.269531 193.835938 241.882812 194.3125 241.539062 194.824219 C 241.195312 195.335938 240.90625 195.875 240.671875 196.445312 C 240.4375 197.015625 240.257812 197.601562 240.136719 198.207031 C 240.019531 198.808594 239.957031 199.417969 239.957031 200.035156 C 239.957031 200.652344 240.019531 201.261719 240.136719 201.867188 C 240.257812 202.46875 240.4375 203.058594 240.671875 203.625 C 240.90625 204.195312 241.195312 204.734375 241.539062 205.25 C 241.882812 205.761719 242.269531 206.234375 242.707031 206.671875 C 243.140625 207.105469 243.617188 207.496094 244.128906 207.835938 C 244.640625 208.179688 245.179688 208.46875 245.75 208.703125 C 246.320312 208.941406 246.90625 209.117188 247.511719 209.238281 C 248.113281 209.359375 248.722656 209.417969 249.339844 209.417969 Z M 249.339844 209.417969 "/></g></g></svg>