<svg xmlns="http://www.w3.org/2000/svg" xmlns:xlink="http://www.w3.org/1999/xlink" width="1366" zoomAndPan="magnify" viewBox="0 0 1024.5 576" height="768" preserveAspectRatio="xMidYMid meet" version="1.2"><defs><clipPath id="bbd3487520"><path d="M 561 349 L 674 349 L 674 479.703125 L 561 479.703125 Z M 561 349 "/></clipPath><clipPath id="6d8c346514"><path d="M 0 96.640625 L 1024 96.640625 L 1024 385 L 0 385 Z M 0 96.640625 "/></clipPath></defs><g id="25fe44b6cc"><g clip-rule="nonzero" clip-path="url(#bbd3487520)"><path style=" stroke:none;fill-rule:nonzero;fill:#000000;fill-opacity:1;" d="M 669.046875 412.214844 L 649.878906 399.375 L 635.53125 389.773438 L 627.792969 384.59375 L 578.511719 351.589844 C 575.714844 349.710938 572.316406 349.273438 569.1875 350.316406 C 568.4375 350.566406 567.6875 350.902344 566.957031 351.339844 C 563.304688 353.492188 561.261719 357.414062 561.636719 361.589844 L 563.683594 384.59375 L 564.140625 389.773438 L 564.246094 391.066406 L 564.640625 395.574219 L 564.976562 399.375 L 571.253906 469.996094 C 571.605469 474.066406 574.214844 477.46875 578.074219 478.910156 C 579.28125 479.367188 580.554688 479.578125 581.847656 479.578125 C 584.703125 479.578125 587.4375 478.449219 589.5 476.425781 L 621.285156 445.34375 L 666.003906 431.292969 C 670.070312 430.019531 672.988281 426.617188 673.574219 422.441406 C 674.15625 418.390625 672.40625 414.488281 669.046875 412.214844 Z M 617.261719 433.652344 C 615.613281 434.171875 614.089844 435.070312 612.859375 436.304688 L 583.246094 465.277344 L 577.382812 399.394531 L 576.53125 389.792969 L 576.070312 384.617188 L 574.195312 363.613281 L 605.539062 384.617188 L 613.277344 389.792969 L 627.605469 399.394531 L 659.121094 420.5 Z M 617.261719 433.652344 "/></g><path style=" stroke:none;fill-rule:nonzero;fill:#ffa801;fill-opacity:1;" d="M 198.53125 236.171875 L 91.457031 236.171875 C 83.84375 236.171875 76.960938 239.511719 71.953125 244.9375 C 66.949219 250.34375 63.882812 257.839844 63.882812 266.085938 C 63.882812 281.242188 70.390625 295.726562 81.902344 305.539062 C 84.925781 308.128906 88.140625 310.527344 91.476562 312.742188 L 91.476562 281.785156 C 91.476562 280.90625 91.808594 280.113281 92.332031 279.527344 C 92.875 278.964844 93.582031 278.589844 94.417969 278.589844 C 96.023438 278.589844 97.359375 280.007812 97.359375 281.785156 L 97.359375 316.332031 C 111.539062 324.347656 127.910156 328.898438 145.367188 328.898438 C 162.554688 328.898438 178.695312 324.472656 192.710938 316.6875 L 192.710938 281.761719 C 192.710938 280.886719 193.023438 280.09375 193.566406 279.507812 C 194.109375 278.945312 194.820312 278.570312 195.632812 278.570312 C 197.257812 278.570312 198.574219 279.988281 198.574219 281.761719 L 198.574219 313.160156 C 201.324219 311.363281 203.996094 309.421875 206.5625 307.375 C 219.054688 297.355469 226.164062 282.074219 226.164062 266.066406 C 226.164062 257.820312 223.078125 250.324219 218.09375 244.917969 C 213.046875 239.53125 206.164062 236.171875 198.53125 236.171875 Z M 198.53125 236.171875 "/><path style=" stroke:none;fill-rule:nonzero;fill:#ffa801;fill-opacity:1;" d="M 138.046875 219.242188 C 162.386719 224.3125 183.492188 203.207031 178.40625 178.828125 C 175.714844 165.863281 165.558594 155.695312 152.605469 153.003906 C 128.265625 147.929688 107.160156 169.035156 112.226562 193.417969 C 114.9375 206.359375 125.097656 216.527344 138.046875 219.242188 Z M 138.046875 219.242188 "/><path style=" stroke:none;fill-rule:nonzero;fill:#ffa801;fill-opacity:1;" d="M 862.132812 214.984375 L 854.4375 214.984375 L 854.4375 234.523438 L 861.070312 234.523438 C 866.285156 234.523438 869.957031 233.625 872.0625 231.808594 C 874.167969 229.992188 875.230469 227.675781 875.230469 224.835938 C 875.230469 222.078125 874.3125 219.761719 872.480469 217.84375 C 870.621094 215.941406 867.179688 214.984375 862.132812 214.984375 Z M 862.132812 214.984375 "/><g clip-rule="nonzero" clip-path="url(#6d8c346514)"><path style=" stroke:none;fill-rule:nonzero;fill:#ffa801;fill-opacity:1;" d="M 879.445312 96.535156 L 144.535156 96.535156 C 143.929688 96.535156 143.304688 96.535156 142.679688 96.535156 C 141.574219 96.535156 140.488281 96.578125 139.382812 96.617188 C 137.589844 96.683594 135.816406 96.785156 134.042969 96.910156 C 61.253906 102.378906 3.503906 161.875 0.730469 235.460938 C 0.710938 236.046875 0.6875 236.652344 0.6875 237.257812 C 0.6875 237.863281 0.667969 238.46875 0.648438 239.09375 C 0.648438 239.71875 0.648438 240.347656 0.648438 240.953125 C 0.648438 241.429688 0.648438 241.933594 0.648438 242.414062 C 0.667969 243.039062 0.667969 243.644531 0.6875 244.25 C 2.648438 322.09375 66.300781 384.59375 144.535156 384.59375 L 517.464844 384.59375 C 517.003906 384.53125 516.546875 384.386719 516.109375 384.199219 C 515.835938 384.074219 515.566406 383.949219 515.316406 383.78125 C 515.066406 383.613281 514.835938 383.425781 514.628906 383.21875 C 514.585938 383.175781 514.542969 383.15625 514.503906 383.113281 C 514.480469 383.089844 514.480469 383.070312 514.460938 383.070312 C 513.960938 382.570312 513.5625 381.964844 513.292969 381.316406 C 513.167969 381.023438 513.0625 380.710938 513 380.398438 C 512.9375 380.066406 512.898438 379.710938 512.898438 379.375 C 512.898438 379.230469 512.917969 379.082031 512.9375 378.917969 C 512.960938 378.707031 512.960938 378.5 512.980469 378.3125 C 512.980469 378.269531 513 378.25 513 378.207031 C 513.125 377.558594 513.375 376.933594 513.753906 376.347656 C 514.460938 375.261719 515.546875 374.492188 516.777344 374.136719 C 516.902344 374.09375 517.003906 374.054688 517.128906 374.03125 L 544.328125 368.25 C 545.746094 367.957031 547.164062 368.230469 548.375 369 C 548.5625 369.125 548.726562 369.273438 548.894531 369.417969 C 549.644531 370.042969 550.1875 370.859375 550.5 371.777344 C 550.5625 371.964844 550.648438 372.175781 550.6875 372.363281 C 550.792969 372.820312 550.8125 373.28125 550.792969 373.738281 C 550.773438 374.40625 550.625 375.097656 550.332031 375.722656 C 549.894531 376.683594 549.164062 377.476562 548.269531 378.039062 C 548.226562 378.082031 548.164062 378.101562 548.125 378.144531 C 548.101562 378.164062 548.058594 378.164062 548.039062 378.1875 C 547.832031 378.3125 547.601562 378.414062 547.371094 378.519531 C 547.351562 378.519531 547.332031 378.542969 547.308594 378.542969 C 547.082031 378.625 546.828125 378.707031 546.578125 378.769531 L 519.363281 384.554688 C 519.238281 384.574219 519.089844 384.59375 518.945312 384.617188 L 563.660156 384.617188 L 561.617188 361.609375 C 561.242188 357.4375 563.285156 353.511719 566.933594 351.359375 C 567.664062 350.945312 568.417969 350.589844 569.167969 350.339844 C 572.296875 349.292969 575.714844 349.734375 578.488281 351.613281 L 627.773438 384.617188 L 879.425781 384.617188 C 919.15625 384.617188 955.152344 368.5 981.179688 342.40625 C 1007.230469 316.351562 1023.351562 280.34375 1023.351562 240.574219 C 1023.351562 161.019531 958.929688 96.535156 879.445312 96.535156 Z M 257.972656 364.886719 L 144.972656 364.886719 C 111.894531 364.886719 80.820312 352.007812 57.4375 328.605469 C 34.058594 305.207031 21.191406 274.101562 21.191406 240.992188 C 21.191406 207.90625 34.058594 176.800781 57.4375 153.398438 C 80.820312 130 111.914062 117.097656 144.972656 117.097656 L 257.972656 117.097656 Z M 415.039062 271.824219 C 411.933594 276.566406 407.59375 280.15625 402.023438 282.617188 C 396.457031 285.0625 389.429688 286.292969 380.941406 286.292969 C 366.046875 286.292969 355.746094 283.433594 350.011719 277.691406 C 344.273438 271.953125 341.019531 264.664062 340.269531 255.816406 L 366.007812 254.207031 C 366.570312 258.382812 367.695312 261.578125 369.40625 263.769531 C 372.199219 267.316406 376.183594 269.089844 381.355469 269.089844 C 385.214844 269.089844 388.199219 268.195312 390.28125 266.378906 C 392.367188 264.5625 393.410156 262.453125 393.410156 260.074219 C 393.410156 257.796875 392.410156 255.773438 390.429688 253.976562 C 388.449219 252.183594 383.816406 250.492188 376.582031 248.90625 C 364.714844 246.234375 356.246094 242.683594 351.199219 238.257812 C 346.109375 233.832031 343.542969 228.195312 343.542969 221.347656 C 343.542969 216.839844 344.835938 212.582031 347.464844 208.59375 C 350.074219 204.585938 353.992188 201.433594 359.226562 199.160156 C 364.464844 196.863281 371.636719 195.714844 380.753906 195.714844 C 391.929688 195.714844 400.460938 197.800781 406.34375 201.957031 C 412.222656 206.109375 415.707031 212.75 416.832031 221.828125 L 391.324219 223.332031 C 390.660156 219.386719 389.21875 216.527344 387.050781 214.730469 C 384.882812 212.9375 381.878906 212.039062 378.0625 212.039062 C 374.914062 212.039062 372.554688 212.707031 370.949219 214.042969 C 369.363281 215.378906 368.550781 217.007812 368.550781 218.90625 C 368.550781 220.304688 369.199219 221.558594 370.511719 222.664062 C 371.785156 223.8125 374.808594 224.898438 379.585938 225.898438 C 391.410156 228.445312 399.878906 231.035156 404.988281 233.644531 C 410.097656 236.253906 413.828125 239.488281 416.144531 243.351562 C 418.480469 247.214844 419.648438 251.535156 419.648438 256.316406 C 419.691406 261.910156 418.148438 267.085938 415.039062 271.824219 Z M 461.507812 284.789062 L 434.394531 284.789062 L 434.394531 197.15625 L 461.507812 197.15625 Z M 552.773438 354.867188 C 552.730469 355.140625 552.691406 355.410156 552.628906 355.683594 C 552.542969 355.953125 552.480469 356.203125 552.355469 356.453125 C 552.335938 356.515625 552.292969 356.558594 552.273438 356.621094 C 551.816406 357.582031 551.085938 358.375 550.167969 358.917969 C 550.042969 358.980469 549.917969 359.042969 549.792969 359.085938 C 549.667969 359.148438 549.542969 359.210938 549.394531 359.273438 C 548.9375 359.460938 548.476562 359.542969 547.996094 359.585938 C 547.832031 359.605469 547.644531 359.628906 547.476562 359.628906 C 546.726562 359.628906 545.996094 359.460938 545.285156 359.148438 L 523.386719 349.378906 L 519.882812 347.8125 C 518.089844 347.019531 516.984375 345.371094 516.753906 343.554688 C 516.628906 342.613281 516.753906 341.632812 517.152344 340.714844 C 517.632812 339.671875 518.402344 338.835938 519.363281 338.273438 C 519.613281 338.125 519.863281 337.980469 520.15625 337.875 C 520.320312 337.8125 520.507812 337.769531 520.675781 337.730469 C 521.675781 337.457031 522.742188 337.480469 523.722656 337.792969 C 523.886719 337.855469 524.074219 337.894531 524.242188 337.960938 L 545.746094 347.539062 L 549.667969 349.292969 C 550.3125 349.585938 550.898438 349.984375 551.375 350.484375 C 551.667969 350.777344 551.898438 351.132812 552.105469 351.488281 C 552.253906 351.738281 552.378906 351.988281 552.480469 352.257812 C 552.792969 353.15625 552.878906 354.035156 552.773438 354.867188 Z M 565.578125 341.300781 C 565.203125 342.699219 564.308594 343.847656 563.054688 344.578125 C 562.222656 345.058594 561.285156 345.285156 560.386719 345.285156 C 558.53125 345.285156 556.714844 344.328125 555.734375 342.613281 L 541.824219 318.523438 C 541.324219 317.6875 541.117188 316.75 541.117188 315.808594 C 541.117188 315.351562 541.15625 314.890625 541.28125 314.453125 C 541.449219 313.847656 541.71875 313.285156 542.074219 312.761719 C 542.222656 312.554688 542.386719 312.367188 542.554688 312.179688 C 542.910156 311.800781 543.304688 311.449219 543.765625 311.195312 C 543.867188 311.132812 543.972656 311.113281 544.078125 311.050781 C 545.246094 310.464844 546.558594 310.300781 547.832031 310.652344 C 548.269531 310.78125 548.664062 310.96875 549.039062 311.175781 C 549.855469 311.636719 550.5625 312.28125 551.042969 313.117188 C 551.042969 313.136719 551.0625 313.136719 551.0625 313.160156 L 554.089844 318.398438 L 564.976562 337.269531 C 565.746094 338.480469 565.933594 339.902344 565.578125 341.300781 Z M 566.726562 272.179688 C 558.71875 277.648438 551.648438 281.367188 545.496094 283.328125 C 539.34375 285.3125 532.042969 286.292969 523.617188 286.292969 C 513.230469 286.292969 504.761719 284.519531 498.214844 280.96875 C 491.664062 277.421875 486.597656 272.140625 482.988281 265.125 C 479.382812 258.109375 477.585938 250.054688 477.585938 240.972656 C 477.585938 231.410156 479.546875 223.082031 483.488281 216.003906 C 487.429688 208.929688 493.207031 203.5625 500.800781 199.890625 C 506.722656 197.050781 514.710938 195.652344 524.742188 195.652344 C 534.421875 195.652344 541.65625 196.527344 546.453125 198.28125 C 551.25 200.035156 555.234375 202.75 558.40625 206.445312 C 561.574219 210.140625 563.953125 214.792969 565.539062 220.453125 L 539.445312 225.105469 C 538.363281 221.808594 536.546875 219.261719 533.984375 217.507812 C 531.417969 215.753906 528.144531 214.878906 524.160156 214.878906 C 518.234375 214.878906 513.5 216.945312 509.976562 221.058594 C 506.453125 225.191406 504.699219 231.703125 504.699219 240.636719 C 504.699219 250.117188 506.472656 256.898438 510.039062 260.972656 C 513.605469 265.042969 518.570312 267.066406 524.929688 267.066406 C 527.957031 267.066406 530.832031 266.628906 533.585938 265.75 C 536.339844 264.875 539.488281 263.371094 543.011719 261.261719 L 543.011719 253.015625 L 524.910156 253.015625 L 524.910156 234.792969 L 566.726562 234.792969 Z M 587.519531 308.777344 L 586.644531 317.0625 L 584.621094 336.476562 C 584.496094 337.480469 584.121094 338.398438 583.515625 339.191406 C 583.265625 339.523438 582.996094 339.816406 582.660156 340.089844 C 582.535156 340.191406 582.410156 340.253906 582.265625 340.359375 C 582.160156 340.421875 582.054688 340.507812 581.953125 340.570312 C 581.136719 341.046875 580.222656 341.277344 579.28125 341.277344 C 579.09375 341.277344 578.90625 341.277344 578.71875 341.257812 C 578.636719 341.257812 578.574219 341.214844 578.488281 341.214844 C 577.175781 341.007812 575.945312 340.359375 575.109375 339.296875 C 574.464844 338.480469 574.066406 337.542969 573.964844 336.539062 C 573.921875 336.144531 573.902344 335.746094 573.941406 335.351562 L 576.570312 310.195312 L 576.84375 307.691406 C 577.175781 304.726562 579.804688 302.597656 582.746094 302.886719 C 583.621094 302.972656 584.414062 303.304688 585.121094 303.765625 C 585.582031 304.058594 586.019531 304.414062 586.375 304.851562 C 587.039062 305.6875 587.457031 306.6875 587.542969 307.730469 C 587.5625 308.066406 587.5625 308.421875 587.519531 308.777344 Z M 620.453125 325.183594 C 620.328125 325.496094 620.160156 325.789062 619.972656 326.058594 C 619.828125 326.269531 619.703125 326.476562 619.535156 326.664062 L 607.125 340.464844 L 600.953125 347.332031 C 600.703125 347.605469 600.429688 347.832031 600.136719 348.0625 C 599.972656 348.1875 599.804688 348.3125 599.636719 348.417969 C 599.492188 348.5 599.324219 348.5625 599.179688 348.648438 C 598.46875 348.960938 597.71875 349.128906 596.949219 349.128906 C 595.65625 349.128906 594.363281 348.648438 593.359375 347.75 C 593.152344 347.5625 592.964844 347.351562 592.777344 347.125 C 592.589844 346.894531 592.441406 346.664062 592.296875 346.414062 C 592.191406 346.246094 592.109375 346.058594 592.023438 345.871094 C 592.003906 345.851562 592.003906 345.808594 591.984375 345.765625 C 591.753906 345.222656 591.628906 344.617188 591.609375 344.035156 C 591.546875 343.054688 591.773438 342.09375 592.234375 341.257812 C 592.441406 340.859375 592.671875 340.507812 592.984375 340.171875 L 611.566406 319.484375 C 613.234375 317.648438 615.863281 317.25 617.96875 318.292969 C 618.074219 318.359375 618.179688 318.378906 618.285156 318.441406 C 618.367188 318.484375 618.429688 318.566406 618.511719 318.609375 C 618.722656 318.753906 618.949219 318.898438 619.136719 319.066406 C 620.203125 320.027344 620.847656 321.34375 620.910156 322.78125 C 620.953125 323.617188 620.785156 324.433594 620.453125 325.183594 Z M 666.710938 284.789062 L 641.203125 284.789062 L 608.417969 236.671875 L 608.417969 284.789062 L 582.972656 284.789062 L 582.972656 197.15625 L 608.230469 197.15625 L 641.203125 245.648438 L 641.203125 197.15625 L 666.710938 197.15625 Z M 809.453125 249.386719 C 809.453125 254.5625 808.636719 259.445312 807.03125 264.039062 C 805.425781 268.632812 802.882812 272.660156 799.441406 276.105469 C 796 279.550781 792.390625 281.972656 788.59375 283.371094 C 783.339844 285.3125 777.019531 286.292969 769.65625 286.292969 C 765.402344 286.292969 760.753906 286 755.703125 285.394531 C 750.65625 284.789062 746.464844 283.621094 743.066406 281.847656 C 739.6875 280.070312 736.578125 277.546875 733.785156 274.289062 C 730.96875 271.03125 729.050781 267.652344 728.027344 264.1875 C 726.359375 258.613281 725.527344 253.664062 725.527344 249.363281 L 725.527344 197.15625 L 752.515625 197.15625 L 752.515625 250.617188 C 752.515625 255.398438 753.828125 259.132812 756.476562 261.804688 C 759.125 264.5 762.796875 265.835938 767.488281 265.835938 C 772.140625 265.835938 775.789062 264.519531 778.4375 261.867188 C 781.085938 259.21875 782.402344 255.460938 782.402344 250.617188 L 782.402344 197.15625 L 809.390625 197.15625 L 809.390625 249.386719 Z M 893.566406 244.8125 C 888.246094 249.800781 880.132812 252.285156 869.226562 252.285156 L 854.417969 252.285156 L 854.417969 284.8125 L 827.242188 284.8125 L 827.242188 197.175781 L 872.207031 197.175781 C 882.011719 197.175781 889.332031 199.515625 894.210938 204.167969 C 899.089844 208.824219 901.53125 215.460938 901.53125 224.085938 C 901.53125 232.914062 898.882812 239.824219 893.566406 244.8125 Z M 893.566406 244.8125 "/></g></g></svg>