<svg xmlns="http://www.w3.org/2000/svg" xmlns:xlink="http://www.w3.org/1999/xlink" width="1366" zoomAndPan="magnify" viewBox="0 0 1024.5 576" height="768" preserveAspectRatio="xMidYMid meet" version="1.2"><defs><clipPath id="f8553e2599"><path d="M 249.785156 0.140625 L 774.53125 0.140625 L 774.53125 525 L 249.785156 525 Z M 249.785156 0.140625 "/></clipPath><clipPath id="24968e35fa"><path d="M 359 379 L 666 379 L 666 575.859375 L 359 575.859375 Z M 359 379 "/></clipPath></defs><g id="008e039189"><g clip-rule="nonzero" clip-path="url(#f8553e2599)"><path style=" stroke:none;fill-rule:nonzero;fill:#f2546b;fill-opacity:1;" d="M 774.554688 262.378906 C 774.554688 407.167969 657.117188 524.53125 512.242188 524.53125 C 367.363281 524.53125 249.929688 407.167969 249.929688 262.378906 C 249.925781 117.589844 367.363281 0.222656 512.242188 0.222656 C 657.117188 0.21875 774.554688 117.585938 774.554688 262.378906 "/></g><g clip-rule="nonzero" clip-path="url(#24968e35fa)"><path style=" stroke:none;fill-rule:nonzero;fill:#ffffff;fill-opacity:1;" d="M 665.269531 525.25 C 652.308594 534.929688 638.378906 543.410156 623.664062 550.503906 C 621.425781 551.589844 619.171875 552.625 616.914062 553.640625 C 584.949219 567.964844 549.539062 575.925781 512.242188 575.925781 C 474.945312 575.925781 439.535156 567.964844 407.585938 553.640625 C 405.296875 552.625 403.042969 551.589844 400.820312 550.503906 C 386.105469 543.394531 372.175781 534.929688 359.214844 525.25 C 361.484375 474.570312 388.425781 430.300781 428.328125 404.160156 C 452.429688 388.355469 481.257812 379.171875 512.242188 379.171875 C 516.96875 379.171875 521.644531 379.390625 526.238281 379.808594 C 551.910156 382.128906 575.726562 390.757812 596.15625 404.160156 C 614.527344 416.195312 630.144531 432.070312 641.867188 450.632812 C 655.632812 472.417969 664.03125 497.90625 665.269531 525.25 "/></g><path style=" stroke:none;fill-rule:nonzero;fill:#fbd5c0;fill-opacity:1;" d="M 596.15625 404.160156 C 593.816406 421.839844 586.015625 437.8125 574.476562 450.300781 C 559.007812 467.042969 536.859375 477.542969 512.242188 477.542969 C 472.808594 477.542969 439.667969 450.582031 430.265625 414.09375 C 429.429688 410.855469 428.78125 407.535156 428.328125 404.160156 C 452.429688 388.355469 481.257812 379.171875 512.242188 379.171875 C 516.96875 379.171875 521.644531 379.375 526.253906 379.808594 C 527.058594 379.875 527.859375 379.957031 528.644531 380.042969 C 529.144531 380.089844 529.644531 380.140625 530.128906 380.207031 C 530.679688 380.257812 531.230469 380.34375 531.765625 380.410156 C 532.101562 380.441406 532.453125 380.492188 532.785156 380.542969 C 533.269531 380.59375 533.769531 380.675781 534.273438 380.742188 C 534.65625 380.792969 535.039062 380.859375 535.441406 380.910156 C 535.773438 380.960938 536.109375 381.007812 536.445312 381.078125 C 537.011719 381.160156 537.5625 381.261719 538.128906 381.34375 C 540.570312 381.761719 542.992188 382.226562 545.378906 382.761719 L 546.984375 383.113281 C 547.285156 383.195312 547.601562 383.261719 547.902344 383.347656 C 548.46875 383.480469 549.054688 383.613281 549.605469 383.765625 C 549.707031 383.78125 549.789062 383.796875 549.855469 383.8125 C 550.574219 383.996094 551.292969 384.179688 551.992188 384.382812 C 552.761719 384.566406 553.511719 384.78125 554.25 385 C 555.101562 385.234375 555.933594 385.484375 556.785156 385.734375 C 557.4375 385.933594 558.089844 386.132812 558.742188 386.351562 C 559.160156 386.484375 559.59375 386.617188 559.992188 386.75 C 560.679688 386.96875 561.363281 387.203125 562.03125 387.4375 C 562.867188 387.71875 563.683594 388.003906 564.503906 388.304688 C 564.570312 388.335938 564.621094 388.355469 564.671875 388.371094 C 565.523438 388.671875 566.359375 388.988281 567.191406 389.304688 C 567.8125 389.554688 568.445312 389.789062 569.078125 390.058594 C 570.734375 390.707031 572.355469 391.390625 573.957031 392.09375 L 576.0625 393.046875 C 576.695312 393.328125 577.332031 393.628906 577.964844 393.929688 C 578.550781 394.214844 579.117188 394.480469 579.6875 394.765625 C 580.21875 395.015625 580.738281 395.28125 581.257812 395.546875 C 581.589844 395.714844 581.941406 395.882812 582.273438 396.066406 C 583.660156 396.765625 585.015625 397.5 586.351562 398.234375 C 586.835938 398.503906 587.335938 398.785156 587.804688 399.054688 C 588.121094 399.238281 588.421875 399.40625 588.722656 399.570312 L 589.859375 400.238281 L 591.011719 400.941406 L 591.761719 401.390625 C 592.480469 401.808594 593.179688 402.242188 593.882812 402.691406 C 594.652344 403.175781 595.402344 403.660156 596.15625 404.160156 "/><path style=" stroke:none;fill-rule:nonzero;fill:#fbd5c0;fill-opacity:1;" d="M 549.539062 337.191406 L 549.539062 410.523438 C 549.539062 429.066406 534.355469 444.257812 515.800781 444.257812 L 508.683594 444.257812 C 490.128906 444.257812 474.960938 429.066406 474.960938 410.523438 L 474.960938 337.191406 C 474.960938 318.648438 490.128906 303.492188 508.683594 303.492188 L 515.800781 303.492188 C 534.355469 303.492188 549.539062 318.648438 549.539062 337.191406 "/><path style=" stroke:none;fill-rule:nonzero;fill:#f8a29e;fill-opacity:1;" d="M 549.539062 337.191406 L 549.539062 376.003906 C 538.449219 382.160156 526.6875 385.734375 514.746094 385.734375 C 500.667969 385.734375 487.238281 381.828125 474.960938 375 L 474.960938 337.191406 C 474.960938 318.648438 490.128906 303.492188 508.683594 303.492188 L 515.800781 303.492188 C 534.355469 303.492188 549.539062 318.648438 549.539062 337.191406 "/><path style=" stroke:none;fill-rule:nonzero;fill:#fbd5c0;fill-opacity:1;" d="M 603.1875 308.914062 C 603.1875 308.914062 620.65625 302.972656 631.8125 283.507812 C 643.941406 262.378906 636.324219 249.207031 633.917969 246.351562 C 627.355469 238.558594 617.214844 243.566406 615.546875 246.351562 C 613.875 249.140625 589.691406 293.042969 603.1875 308.914062 "/><path style=" stroke:none;fill-rule:nonzero;fill:#f8a29e;fill-opacity:1;" d="M 620.304688 253.28125 C 620.304688 253.28125 631.398438 254.699219 627.503906 270.273438 C 623.597656 285.863281 613.359375 292.023438 599.429688 299.984375 C 585.515625 307.949219 606.394531 256.453125 620.304688 253.28125 "/><path style=" stroke:none;fill-rule:nonzero;fill:#fbd5c0;fill-opacity:1;" d="M 425.839844 308.914062 C 425.839844 308.914062 408.371094 302.972656 397.210938 283.507812 C 385.070312 262.378906 392.6875 249.207031 395.089844 246.351562 C 401.65625 238.558594 411.792969 243.566406 413.464844 246.351562 C 415.132812 249.140625 439.335938 293.042969 425.839844 308.914062 "/><path style=" stroke:none;fill-rule:nonzero;fill:#f8a29e;fill-opacity:1;" d="M 408.703125 253.28125 C 408.703125 253.28125 397.628906 254.699219 401.519531 270.273438 C 405.414062 285.863281 415.667969 292.023438 429.582031 299.984375 C 443.511719 307.949219 422.632812 256.453125 408.703125 253.28125 "/><path style=" stroke:none;fill-rule:nonzero;fill:#fbd5c0;fill-opacity:1;" d="M 620.304688 242.996094 C 620.304688 179.015625 573.054688 127.136719 514.746094 127.136719 C 456.457031 127.136719 409.171875 179.015625 409.171875 242.996094 C 409.171875 306.980469 456.457031 373.867188 514.746094 373.867188 C 569.53125 373.867188 620.304688 306.445312 620.304688 242.996094 "/><path style=" stroke:none;fill-rule:nonzero;fill:#23255d;fill-opacity:1;" d="M 524.25 196.277344 C 524.25 196.277344 544.109375 260.125 618.804688 253.796875 C 618.804688 253.796875 631.847656 234.953125 627.4375 193.972656 C 622.460938 147.785156 581.523438 108.925781 514.746094 122.828125 C 514.746094 122.828125 508.652344 155.664062 524.25 196.277344 "/><path style=" stroke:none;fill-rule:nonzero;fill:#23255d;fill-opacity:1;" d="M 527.589844 127.136719 C 527.589844 127.136719 530.363281 115.050781 520.34375 105.585938 C 510.320312 96.121094 377.621094 115.550781 409.171875 242.996094 C 409.171875 242.996094 440.105469 166.78125 522.011719 160.101562 L 527.589844 127.136719 "/></g></svg>