<svg xmlns="http://www.w3.org/2000/svg" xmlns:xlink="http://www.w3.org/1999/xlink" width="1366" zoomAndPan="magnify" viewBox="0 0 1024.5 576" height="768" preserveAspectRatio="xMidYMid meet" version="1.2"><defs><clipPath id="e3b95ea6e4"><path d="M 224.140625 0.140625 L 799.859375 0.140625 L 799.859375 575.859375 L 224.140625 575.859375 Z M 224.140625 0.140625 "/></clipPath><clipPath id="3b989d34b6"><path d="M 321 440 L 703 440 L 703 575.859375 L 321 575.859375 Z M 321 440 "/></clipPath></defs><g id="4d113a75bd"><g clip-rule="nonzero" clip-path="url(#e3b95ea6e4)"><path style=" stroke:none;fill-rule:nonzero;fill:#ffcc66;fill-opacity:1;" d="M 799.859375 288 C 799.859375 446.992188 670.980469 575.859375 512.007812 575.859375 C 353.011719 575.863281 224.140625 446.992188 224.140625 288 C 224.140625 129.011719 353.011719 0.136719 512.007812 0.136719 C 670.980469 0.136719 799.859375 129.011719 799.859375 288 Z M 799.859375 288 "/></g><path style=" stroke:none;fill-rule:nonzero;fill:#f8c7b0;fill-opacity:1;" d="M 636.402344 308.121094 C 636.042969 308.238281 635.714844 308.316406 635.355469 308.402344 C 620.191406 358.519531 587.425781 397.125 546.921875 411.363281 L 546.921875 449.460938 L 478.039062 449.460938 L 478.039062 411.472656 C 437.363281 397.320312 404.425781 358.621094 389.230469 308.324219 C 389.007812 308.261719 388.78125 308.214844 388.558594 308.128906 C 349.988281 296.496094 347.667969 251.398438 357.015625 236.976562 C 365.621094 223.722656 378.667969 229.230469 380.691406 230.191406 C 412.6875 146.949219 444.457031 126.796875 513.4375 126.796875 C 582.492188 126.796875 617.070312 139.753906 643.964844 230.414062 C 643.976562 230.351562 643.996094 230.339844 643.996094 230.339844 C 643.996094 230.339844 658.59375 222.5625 667.949219 236.972656 C 677.300781 251.394531 674.992188 296.492188 636.402344 308.121094 Z M 636.402344 308.121094 "/><path style=" stroke:none;fill-rule:nonzero;fill:#f8b3b0;fill-opacity:1;" d="M 520.6875 410.851562 C 543.605469 410.851562 565.097656 403.191406 583.871094 389.871094 C 563.230469 407.183594 538.710938 417.320312 512.316406 417.320312 C 504.300781 417.320312 496.457031 416.363281 488.839844 414.59375 L 488.839844 452.34375 L 478.042969 449.460938 L 478.042969 411.472656 C 437.367188 397.320312 404.429688 358.621094 389.234375 308.324219 C 389.007812 308.261719 388.785156 308.214844 388.5625 308.128906 C 349.988281 296.496094 347.671875 251.398438 357.015625 236.976562 C 359.824219 232.640625 363.128906 230.335938 366.351562 229.195312 C 366.019531 229.625 365.789062 230.09375 365.398438 230.515625 C 350.480469 245.710938 350.761719 290.0625 396.945312 301.65625 C 397.171875 301.738281 397.394531 301.78125 397.617188 301.84375 C 416.894531 365.65625 464.722656 410.851562 520.6875 410.851562 Z M 363.242188 254.589844 C 359.347656 266.148438 371.375 286.835938 384.183594 293.089844 C 384.183594 293.089844 380.132812 276.535156 380.132812 249.726562 C 380.132812 249.722656 367.136719 243.019531 363.242188 254.589844 Z M 661.722656 254.589844 C 657.816406 243.019531 644.839844 249.722656 644.839844 249.722656 C 644.839844 276.53125 640.792969 293.085938 640.792969 293.085938 C 653.601562 286.835938 665.613281 266.148438 661.722656 254.589844 Z M 661.722656 254.589844 "/><g clip-rule="nonzero" clip-path="url(#3b989d34b6)"><path style=" stroke:none;fill-rule:nonzero;fill:#ff6633;fill-opacity:1;" d="M 526.242188 575.503906 C 521.511719 575.714844 516.765625 575.863281 511.992188 575.863281 C 507.214844 575.863281 502.488281 575.726562 497.765625 575.503906 C 496.085938 575.421875 494.453125 575.261719 492.792969 575.152344 C 489.789062 574.957031 486.773438 574.75 483.792969 574.472656 C 481.695312 574.269531 479.617188 573.988281 477.539062 573.746094 C 475.050781 573.445312 472.558594 573.152344 470.097656 572.796875 C 467.746094 572.441406 465.414062 572.039062 463.085938 571.640625 C 460.949219 571.289062 458.816406 570.910156 456.707031 570.5 C 454.132812 570.007812 451.59375 569.453125 449.050781 568.882812 C 447.253906 568.46875 445.46875 568.058594 443.671875 567.636719 C 440.882812 566.953125 438.117188 566.226562 435.355469 565.460938 C 433.917969 565.082031 432.503906 564.660156 431.082031 564.246094 C 428.03125 563.347656 425.007812 562.425781 421.988281 561.4375 C 421.003906 561.105469 420.023438 560.765625 419.027344 560.414062 C 415.652344 559.257812 412.289062 558.074219 408.976562 556.789062 C 408.535156 556.636719 408.113281 556.457031 407.683594 556.285156 C 375.910156 543.890625 346.878906 526.023438 321.730469 503.824219 C 361.570312 475.1875 469.652344 441.324219 510.578125 440.351562 L 510.578125 440.292969 C 511.019531 440.292969 511.535156 440.320312 511.988281 440.320312 L 512.007812 440.320312 C 512.457031 440.320312 512.980469 440.292969 513.40625 440.292969 L 513.40625 440.351562 C 554.34375 441.324219 662.417969 475.1875 702.253906 503.824219 C 677.144531 525.980469 648.15625 543.832031 616.445312 556.234375 C 615.949219 556.425781 615.4375 556.636719 614.941406 556.832031 C 611.691406 558.082031 608.390625 559.246094 605.074219 560.371094 C 604.027344 560.75 602.96875 561.101562 601.90625 561.460938 C 598.957031 562.429688 595.976562 563.339844 592.980469 564.214844 C 591.5 564.644531 590.019531 565.078125 588.527344 565.492188 C 585.828125 566.234375 583.105469 566.9375 580.382812 567.613281 C 578.53125 568.042969 576.683594 568.472656 574.824219 568.882812 C 572.339844 569.4375 569.847656 569.988281 567.335938 570.472656 C 565.160156 570.894531 562.957031 571.28125 560.769531 571.640625 C 558.488281 572.046875 556.214844 572.429688 553.9375 572.773438 C 551.398438 573.140625 548.847656 573.4375 546.308594 573.753906 C 544.285156 573.976562 542.257812 574.253906 540.222656 574.460938 C 537.171875 574.75 534.105469 574.945312 531.019531 575.152344 C 529.441406 575.269531 527.851562 575.421875 526.242188 575.503906 Z M 526.242188 575.503906 "/></g><path style=" stroke:none;fill-rule:nonzero;fill:#371516;fill-opacity:1;" d="M 687.898438 494.859375 C 651.882812 474.730469 590.316406 454.003906 546.917969 444.992188 L 546.917969 411.363281 C 587.417969 397.125 620.1875 358.519531 635.351562 308.398438 C 635.710938 308.316406 636.039062 308.238281 636.398438 308.117188 C 661.375 300.59375 671.140625 279.050781 672.394531 260.875 C 678.214844 322.21875 752.421875 430.558594 687.898438 494.859375 Z M 337.414062 494.125 C 373.875 474.074219 435.121094 453.589844 478.039062 444.792969 L 478.039062 411.46875 C 437.363281 397.316406 404.425781 358.617188 389.230469 308.324219 C 389.007812 308.257812 388.78125 308.210938 388.558594 308.125 C 349.988281 296.496094 347.667969 251.394531 357.011719 236.972656 C 365.621094 223.71875 378.667969 229.226562 380.691406 230.1875 C 412.6875 146.949219 444.457031 126.796875 513.4375 126.796875 C 582.492188 126.796875 617.070312 139.753906 643.964844 230.414062 C 643.976562 230.351562 643.996094 230.339844 643.996094 230.339844 C 643.996094 230.339844 658.59375 222.5625 667.949219 236.972656 C 669.890625 239.96875 671.320312 244.292969 672.03125 249.359375 C 672.5 182.910156 696.359375 105.210938 612.375 79.097656 C 591.945312 72.746094 569.015625 72.746094 552.335938 74.246094 C 529.558594 63.714844 478.253906 35.496094 423.496094 60.671875 C 350.859375 94.070312 352.65625 187.117188 351.773438 254.65625 C 350.980469 315.804688 257.691406 431.695312 337.414062 494.125 Z M 474.160156 267.660156 C 474.160156 260.132812 468.0625 254.039062 460.539062 254.039062 C 453.019531 254.039062 446.917969 260.132812 446.917969 267.660156 L 446.917969 285.3125 C 446.917969 292.832031 453.019531 298.933594 460.539062 298.933594 C 468.0625 298.933594 474.160156 292.832031 474.160156 285.3125 Z M 462.929688 254.355469 C 462.597656 254.289062 462.441406 254.28125 462.214844 254.25 L 461.617188 254.199219 C 461.222656 254.167969 460.835938 254.148438 460.457031 254.140625 C 459.695312 254.109375 458.945312 254.121094 458.195312 254.140625 C 456.695312 254.199219 455.195312 254.347656 453.695312 254.621094 C 452.195312 254.886719 450.6875 255.28125 449.210938 255.859375 C 448.476562 256.148438 447.75 256.480469 447.042969 256.871094 C 446.691406 257.0625 446.34375 257.273438 446.003906 257.496094 L 445.5 257.839844 L 445.480469 257.851562 C 445.511719 257.839844 445.417969 257.882812 445.539062 257.824219 L 445.535156 257.828125 L 445.511719 257.847656 L 445.371094 257.953125 L 445.183594 258.097656 C 443.734375 259.359375 441.988281 260.257812 439.855469 260.257812 C 437.710938 260.289062 435.324219 259.378906 433.089844 258.28125 C 434.648438 260.222656 436.382812 262.195312 439 263.484375 C 440.292969 264.121094 441.800781 264.527344 443.355469 264.621094 C 444.917969 264.722656 446.441406 264.546875 447.972656 264.160156 L 448.199219 264.113281 L 448.3125 264.085938 L 448.375 264.074219 L 448.402344 264.066406 L 448.410156 264.066406 C 448.53125 264.011719 448.449219 264.050781 448.476562 264.039062 L 448.484375 264.039062 L 448.816406 264 C 449.039062 263.976562 449.261719 263.964844 449.484375 263.957031 C 449.9375 263.949219 450.390625 263.972656 450.855469 264.019531 C 451.78125 264.109375 452.722656 264.316406 453.671875 264.589844 C 454.617188 264.871094 455.558594 265.222656 456.484375 265.640625 C 456.941406 265.847656 457.394531 266.066406 457.832031 266.304688 C 458.050781 266.421875 458.257812 266.539062 458.460938 266.664062 L 458.742188 266.84375 C 458.816406 266.898438 458.949219 266.976562 458.910156 266.996094 Z M 385.945312 168.683594 C 368.125 209.476562 387.867188 252.839844 387.867188 252.839844 C 397.039062 219.082031 482.367188 177.078125 482.367188 177.078125 C 463.21875 194.015625 466.136719 207.5 466.136719 207.5 C 554.417969 194.066406 575.578125 124.863281 575.578125 124.863281 C 498.40625 60.492188 403.761719 127.886719 385.945312 168.683594 Z M 563.542969 123.746094 C 563.542969 123.746094 608.042969 213.550781 639.378906 253.046875 C 639.378906 253.046875 692.503906 124.902344 563.542969 123.746094 Z M 420.082031 243.300781 C 423.320312 239.378906 427.136719 235.953125 431.292969 233.203125 C 435.386719 230.371094 439.851562 228.175781 444.488281 226.785156 C 449.160156 225.332031 453.960938 225.308594 458.664062 224.582031 C 463.433594 223.886719 468.3125 223.640625 473.722656 222.871094 L 473.882812 222.179688 C 469.289062 219.105469 463.855469 217.695312 458.347656 217.472656 C 452.777344 217.191406 447.382812 219.238281 442.449219 221.46875 C 437.484375 223.753906 432.976562 226.828125 429.058594 230.433594 C 425.246094 234.148438 421.859375 238.242188 419.472656 242.9375 Z M 578.875 267.660156 C 578.875 260.132812 572.773438 254.039062 565.253906 254.039062 C 557.730469 254.039062 551.636719 260.132812 551.636719 267.660156 L 551.636719 285.3125 C 551.636719 292.832031 557.730469 298.933594 565.253906 298.933594 C 572.773438 298.933594 578.875 292.832031 578.875 285.3125 Z M 566.890625 267.003906 C 566.847656 266.984375 566.980469 266.902344 567.054688 266.851562 L 567.339844 266.667969 C 567.542969 266.546875 567.753906 266.425781 567.972656 266.308594 C 568.402344 266.074219 568.859375 265.851562 569.320312 265.644531 C 570.238281 265.226562 571.183594 264.875 572.132812 264.597656 C 573.074219 264.320312 574.019531 264.117188 574.945312 264.023438 C 575.410156 263.976562 575.863281 263.957031 576.320312 263.964844 C 576.542969 263.964844 576.761719 263.980469 576.984375 264.007812 L 577.316406 264.042969 L 577.328125 264.042969 C 577.457031 264.097656 577.371094 264.0625 577.398438 264.074219 L 577.425781 264.082031 L 577.488281 264.089844 L 577.601562 264.121094 L 577.832031 264.164062 C 579.359375 264.546875 580.886719 264.722656 582.449219 264.628906 C 584 264.535156 585.507812 264.128906 586.804688 263.488281 C 589.421875 262.203125 591.15625 260.230469 592.714844 258.289062 C 590.480469 259.382812 588.097656 260.292969 585.953125 260.265625 C 583.816406 260.261719 582.066406 259.367188 580.621094 258.101562 L 580.429688 257.957031 L 580.339844 257.890625 L 580.269531 257.832031 C 580.296875 257.847656 580.207031 257.800781 580.324219 257.855469 L 580.316406 257.855469 L 580.300781 257.839844 L 579.796875 257.5 C 579.457031 257.277344 579.113281 257.070312 578.761719 256.875 C 578.050781 256.484375 577.324219 256.152344 576.585938 255.863281 C 575.109375 255.285156 573.609375 254.894531 572.105469 254.621094 C 570.605469 254.347656 569.105469 254.203125 567.605469 254.144531 C 566.855469 254.121094 566.105469 254.113281 565.339844 254.140625 C 564.960938 254.152344 564.578125 254.171875 564.1875 254.203125 L 563.585938 254.253906 C 563.363281 254.28125 563.203125 254.292969 562.871094 254.359375 Z M 606.316406 242.9375 C 603.933594 238.246094 600.546875 234.148438 596.734375 230.433594 C 592.816406 226.828125 588.304688 223.753906 583.34375 221.46875 C 578.414062 219.238281 573.019531 217.191406 567.449219 217.472656 C 561.941406 217.695312 556.507812 219.105469 551.910156 222.179688 L 552.074219 222.871094 C 557.488281 223.640625 562.367188 223.886719 567.136719 224.582031 C 571.835938 225.308594 576.636719 225.332031 581.308594 226.785156 C 585.949219 228.179688 590.414062 230.371094 594.507812 233.203125 C 598.664062 235.953125 602.480469 239.378906 605.714844 243.300781 Z M 606.316406 242.9375 "/><path style=" stroke:none;fill-rule:nonzero;fill:#ffffff;fill-opacity:1;" d="M 545.980469 348.449219 C 545.980469 364.007812 530.976562 376.660156 512.484375 376.660156 C 493.972656 376.660156 478.960938 364.007812 478.960938 348.449219 Z M 512.476562 440.296875 C 512.476562 440.296875 498.5625 441.542969 478.039062 431.011719 L 457.699219 449.472656 L 483.441406 480.9375 Z M 540.558594 480.9375 L 566.300781 449.472656 L 545.960938 431.011719 C 525.4375 441.539062 511.523438 440.296875 511.523438 440.296875 Z M 454.007812 262.027344 C 450.960938 262.027344 448.488281 265.265625 448.488281 269.253906 C 448.488281 273.246094 450.960938 276.488281 454.007812 276.488281 C 457.054688 276.488281 459.523438 273.246094 459.523438 269.253906 C 459.527344 265.261719 457.054688 262.027344 454.007812 262.027344 Z M 558.71875 262.027344 C 555.675781 262.027344 553.207031 265.265625 553.207031 269.253906 C 553.207031 273.246094 555.675781 276.488281 558.71875 276.488281 C 561.769531 276.488281 564.234375 273.246094 564.234375 269.253906 C 564.234375 265.261719 561.769531 262.027344 558.71875 262.027344 Z M 558.71875 262.027344 "/></g></svg>