<svg xmlns="http://www.w3.org/2000/svg" xmlns:xlink="http://www.w3.org/1999/xlink" width="1366" zoomAndPan="magnify" viewBox="0 0 1024.5 576" height="768" preserveAspectRatio="xMidYMid meet" version="1.2"><defs><clipPath id="926fcbfea5"><path d="M 224.140625 0.140625 L 799.859375 0.140625 L 799.859375 575.859375 L 224.140625 575.859375 Z M 224.140625 0.140625 "/></clipPath></defs><g id="5e45e0e17f"><g clip-rule="nonzero" clip-path="url(#926fcbfea5)"><path style=" stroke:none;fill-rule:nonzero;fill:#ffa801;fill-opacity:1;" d="M 799.859375 288 C 799.859375 292.710938 799.742188 297.417969 799.511719 302.125 C 799.28125 306.828125 798.933594 311.527344 798.472656 316.214844 C 798.011719 320.902344 797.433594 325.578125 796.742188 330.238281 C 796.050781 334.898438 795.246094 339.539062 794.328125 344.160156 C 793.410156 348.777344 792.378906 353.375 791.234375 357.945312 C 790.089844 362.515625 788.832031 367.054688 787.464844 371.5625 C 786.097656 376.070312 784.621094 380.542969 783.03125 384.976562 C 781.445312 389.414062 779.75 393.804688 777.949219 398.160156 C 776.144531 402.511719 774.234375 406.816406 772.222656 411.074219 C 770.207031 415.335938 768.089844 419.542969 765.871094 423.695312 C 763.648438 427.851562 761.328125 431.949219 758.90625 435.988281 C 756.484375 440.03125 753.964844 444.007812 751.347656 447.925781 C 748.730469 451.84375 746.015625 455.695312 743.210938 459.476562 C 740.40625 463.261719 737.507812 466.972656 734.519531 470.617188 C 731.53125 474.257812 728.453125 477.824219 725.289062 481.316406 C 722.125 484.804688 718.878906 488.214844 715.546875 491.546875 C 712.214844 494.878906 708.804688 498.125 705.316406 501.289062 C 701.824219 504.453125 698.257812 507.53125 694.617188 510.519531 C 690.972656 513.507812 687.261719 516.40625 683.476562 519.210938 C 679.695312 522.015625 675.84375 524.730469 671.925781 527.347656 C 668.007812 529.964844 664.03125 532.484375 659.988281 534.90625 C 655.949219 537.328125 651.851562 539.648438 647.695312 541.871094 C 643.542969 544.089844 639.335938 546.207031 635.074219 548.222656 C 630.816406 550.234375 626.511719 552.144531 622.160156 553.949219 C 617.808594 555.75 613.414062 557.445312 608.976562 559.03125 C 604.542969 560.621094 600.070312 562.097656 595.5625 563.464844 C 591.054688 564.832031 586.515625 566.089844 581.945312 567.234375 C 577.375 568.378906 572.777344 569.410156 568.160156 570.328125 C 563.539062 571.246094 558.898438 572.050781 554.238281 572.742188 C 549.578125 573.433594 544.902344 574.011719 540.214844 574.472656 C 535.527344 574.933594 530.828125 575.28125 526.125 575.511719 C 521.417969 575.742188 516.710938 575.859375 512 575.859375 C 507.289062 575.859375 502.582031 575.742188 497.875 575.511719 C 493.171875 575.28125 488.472656 574.933594 483.785156 574.472656 C 479.097656 574.011719 474.421875 573.433594 469.761719 572.742188 C 465.101562 572.050781 460.460938 571.246094 455.839844 570.328125 C 451.222656 569.410156 446.625 568.378906 442.054688 567.234375 C 437.484375 566.089844 432.945312 564.832031 428.4375 563.464844 C 423.929688 562.097656 419.457031 560.621094 415.023438 559.03125 C 410.585938 557.445312 406.195312 555.75 401.839844 553.949219 C 397.488281 552.144531 393.183594 550.234375 388.925781 548.222656 C 384.664062 546.207031 380.457031 544.089844 376.304688 541.871094 C 372.148438 539.648438 368.050781 537.328125 364.011719 534.90625 C 359.96875 532.484375 355.992188 529.964844 352.074219 527.347656 C 348.15625 524.730469 344.304688 522.015625 340.523438 519.210938 C 336.738281 516.40625 333.027344 513.507812 329.382812 510.519531 C 325.742188 507.53125 322.175781 504.453125 318.683594 501.289062 C 315.195312 498.125 311.785156 494.878906 308.453125 491.546875 C 305.121094 488.214844 301.875 484.804688 298.710938 481.316406 C 295.546875 477.824219 292.46875 474.257812 289.480469 470.617188 C 286.492188 466.972656 283.59375 463.261719 280.789062 459.476562 C 277.984375 455.695312 275.269531 451.84375 272.652344 447.925781 C 270.035156 444.007812 267.515625 440.03125 265.09375 435.988281 C 262.671875 431.949219 260.351562 427.851562 258.128906 423.695312 C 255.910156 419.542969 253.792969 415.335938 251.777344 411.074219 C 249.765625 406.816406 247.855469 402.511719 246.050781 398.160156 C 244.25 393.804688 242.554688 389.414062 240.96875 384.976562 C 239.378906 380.542969 237.902344 376.070312 236.535156 371.5625 C 235.167969 367.054688 233.910156 362.515625 232.765625 357.945312 C 231.621094 353.375 230.589844 348.777344 229.671875 344.160156 C 228.753906 339.539062 227.949219 334.898438 227.257812 330.238281 C 226.566406 325.578125 225.988281 320.902344 225.527344 316.214844 C 225.066406 311.527344 224.71875 306.828125 224.488281 302.125 C 224.257812 297.417969 224.140625 292.710938 224.140625 288 C 224.140625 283.289062 224.257812 278.582031 224.488281 273.875 C 224.71875 269.171875 225.066406 264.472656 225.527344 259.785156 C 225.988281 255.097656 226.566406 250.421875 227.257812 245.761719 C 227.949219 241.101562 228.753906 236.460938 229.671875 231.839844 C 230.589844 227.222656 231.621094 222.625 232.765625 218.054688 C 233.910156 213.484375 235.167969 208.945312 236.535156 204.4375 C 237.902344 199.929688 239.378906 195.457031 240.96875 191.023438 C 242.554688 186.585938 244.25 182.191406 246.050781 177.839844 C 247.855469 173.488281 249.765625 169.183594 251.777344 164.925781 C 253.792969 160.664062 255.910156 156.457031 258.128906 152.304688 C 260.351562 148.148438 262.671875 144.050781 265.09375 140.011719 C 267.515625 135.96875 270.035156 131.992188 272.652344 128.074219 C 275.269531 124.15625 277.984375 120.304688 280.789062 116.523438 C 283.59375 112.738281 286.492188 109.027344 289.480469 105.382812 C 292.46875 101.742188 295.546875 98.175781 298.710938 94.683594 C 301.875 91.195312 305.121094 87.785156 308.453125 84.453125 C 311.785156 81.121094 315.195312 77.875 318.683594 74.710938 C 322.175781 71.546875 325.742188 68.46875 329.382812 65.480469 C 333.027344 62.492188 336.738281 59.59375 340.523438 56.789062 C 344.304688 53.984375 348.15625 51.269531 352.074219 48.652344 C 355.992188 46.035156 359.96875 43.515625 364.011719 41.09375 C 368.050781 38.671875 372.148438 36.351562 376.304688 34.128906 C 380.457031 31.910156 384.664062 29.792969 388.925781 27.777344 C 393.183594 25.765625 397.488281 23.855469 401.839844 22.050781 C 406.195312 20.25 410.585938 18.554688 415.023438 16.96875 C 419.457031 15.378906 423.929688 13.902344 428.4375 12.535156 C 432.945312 11.167969 437.484375 9.910156 442.054688 8.765625 C 446.625 7.621094 451.222656 6.589844 455.839844 5.671875 C 460.460938 4.753906 465.101562 3.949219 469.761719 3.257812 C 474.421875 2.566406 479.097656 1.988281 483.785156 1.527344 C 488.472656 1.066406 493.171875 0.71875 497.875 0.488281 C 502.582031 0.257812 507.289062 0.140625 512 0.140625 C 516.710938 0.140625 521.417969 0.257812 526.125 0.488281 C 530.828125 0.71875 535.527344 1.066406 540.214844 1.527344 C 544.902344 1.988281 549.578125 2.566406 554.238281 3.257812 C 558.898438 3.949219 563.539062 4.753906 568.160156 5.671875 C 572.777344 6.589844 577.375 7.621094 581.945312 8.765625 C 586.515625 9.910156 591.054688 11.167969 595.5625 12.535156 C 600.070312 13.902344 604.542969 15.378906 608.976562 16.96875 C 613.414062 18.554688 617.808594 20.25 622.160156 22.050781 C 626.511719 23.855469 630.816406 25.765625 635.074219 27.777344 C 639.335938 29.792969 643.542969 31.910156 647.695312 34.128906 C 651.851562 36.351562 655.949219 38.671875 659.988281 41.09375 C 664.03125 43.515625 668.007812 46.035156 671.925781 48.652344 C 675.84375 51.269531 679.695312 53.984375 683.476562 56.789062 C 687.261719 59.59375 690.972656 62.492188 694.617188 65.480469 C 698.257812 68.46875 701.824219 71.546875 705.316406 74.710938 C 708.804688 77.875 712.214844 81.121094 715.546875 84.453125 C 718.878906 87.785156 722.125 91.195312 725.289062 94.683594 C 728.453125 98.175781 731.53125 101.742188 734.519531 105.382812 C 737.507812 109.027344 740.40625 112.738281 743.210938 116.523438 C 746.015625 120.304688 748.730469 124.15625 751.347656 128.074219 C 753.964844 131.992188 756.484375 135.96875 758.90625 140.011719 C 761.328125 144.050781 763.648438 148.148438 765.871094 152.304688 C 768.089844 156.457031 770.207031 160.664062 772.222656 164.925781 C 774.234375 169.183594 776.144531 173.488281 777.949219 177.839844 C 779.75 182.191406 781.445312 186.585938 783.03125 191.023438 C 784.621094 195.457031 786.097656 199.929688 787.464844 204.4375 C 788.832031 208.945312 790.089844 213.484375 791.234375 218.054688 C 792.378906 222.625 793.410156 227.222656 794.328125 231.839844 C 795.246094 236.460938 796.050781 241.101562 796.742188 245.761719 C 797.433594 250.421875 798.011719 255.097656 798.472656 259.785156 C 798.933594 264.472656 799.28125 269.171875 799.511719 273.875 C 799.742188 278.582031 799.859375 283.289062 799.859375 288 Z M 799.859375 288 "/></g><path style=" stroke:none;fill-rule:evenodd;fill:#ffffff;fill-opacity:1;" d="M 669.210938 420.160156 L 542.878906 420.160156 L 545.6875 415.839844 C 547.847656 412.601562 548.28125 408.5 546.769531 405.042969 C 545.257812 401.371094 542.015625 398.78125 538.128906 398.132812 L 485.65625 389.0625 C 481.984375 388.417969 478.097656 389.496094 475.503906 392.304688 C 472.914062 394.894531 471.617188 398.566406 472.265625 402.238281 L 475.503906 420.160156 L 355.003906 420.160156 C 339.890625 420.160156 327.796875 407.851562 327.796875 392.949219 L 327.796875 308.515625 C 327.796875 293.398438 339.890625 281.304688 355.003906 281.304688 L 669.210938 281.304688 C 684.109375 281.304688 696.421875 293.398438 696.421875 308.515625 L 696.421875 392.949219 C 696.421875 407.851562 684.109375 420.160156 669.210938 420.160156 Z M 388.046875 382.371094 C 378.113281 382.371094 370.121094 374.378906 370.121094 364.445312 C 370.121094 362.070312 371.847656 360.125 374.441406 360.125 C 376.816406 360.125 378.761719 362.070312 378.761719 364.445312 C 378.761719 369.628906 382.863281 373.730469 388.046875 373.730469 C 393.226562 373.730469 397.332031 369.628906 397.332031 364.445312 C 397.332031 359.261719 393.226562 354.945312 388.046875 354.945312 C 378.113281 354.945312 370.121094 346.953125 370.121094 337.019531 C 370.121094 327.085938 378.113281 319.097656 388.046875 319.097656 C 397.980469 319.097656 405.96875 327.085938 405.96875 337.019531 C 405.96875 339.394531 404.027344 341.339844 401.648438 341.339844 C 399.273438 341.339844 397.332031 339.394531 397.332031 337.019531 C 397.332031 331.835938 393.226562 327.734375 388.046875 327.734375 C 382.863281 327.734375 378.761719 331.835938 378.761719 337.019531 C 378.761719 342.203125 382.863281 346.304688 388.046875 346.304688 C 397.980469 346.304688 405.96875 354.511719 405.96875 364.445312 C 405.96875 374.378906 397.980469 382.371094 388.046875 382.371094 Z M 634.660156 382.371094 C 632.285156 382.371094 630.339844 380.425781 630.339844 378.050781 L 630.339844 327.734375 L 619.542969 327.734375 C 617.167969 327.734375 615.222656 325.789062 615.222656 323.414062 C 615.222656 321.039062 617.167969 319.097656 619.542969 319.097656 L 649.773438 319.097656 C 652.152344 319.097656 654.09375 321.039062 654.09375 323.414062 C 654.09375 325.789062 652.152344 327.734375 649.773438 327.734375 L 638.976562 327.734375 L 638.976562 378.050781 C 638.976562 380.425781 637.035156 382.371094 634.660156 382.371094 Z M 599.675781 382.371094 C 597.300781 382.371094 595.355469 380.425781 595.355469 378.050781 L 595.355469 323.414062 C 595.355469 321.039062 597.300781 319.097656 599.675781 319.097656 C 602.050781 319.097656 603.996094 321.039062 603.996094 323.414062 L 603.996094 378.050781 C 603.996094 380.425781 602.050781 382.371094 599.675781 382.371094 Z M 577.863281 382.371094 C 575.488281 382.371094 573.546875 380.425781 573.546875 378.050781 L 573.546875 340.042969 L 558.644531 367.039062 C 557.78125 368.550781 556.269531 369.414062 554.757812 369.414062 C 553.246094 369.414062 551.734375 368.550781 551.085938 367.039062 L 535.96875 340.042969 L 535.96875 378.050781 C 535.96875 380.425781 534.027344 382.371094 531.652344 382.371094 C 529.277344 382.371094 527.332031 380.425781 527.332031 378.050781 L 527.332031 323.414062 C 527.332031 321.472656 528.84375 319.746094 530.570312 319.097656 C 532.515625 318.664062 534.675781 319.527344 535.539062 321.257812 L 554.757812 356.023438 L 573.976562 321.257812 C 575.058594 319.527344 577 318.664062 578.945312 319.097656 C 580.886719 319.746094 582.183594 321.472656 582.183594 323.414062 L 582.183594 378.050781 C 582.183594 380.425781 580.238281 382.371094 577.863281 382.371094 Z M 496.019531 382.371094 L 482.414062 382.371094 C 480.039062 382.371094 478.097656 380.425781 478.097656 378.050781 L 478.097656 323.199219 C 478.097656 320.824219 480.039062 318.878906 482.414062 318.878906 L 496.019531 318.878906 C 505.953125 318.878906 514.160156 327.085938 514.160156 337.019531 C 514.160156 342.417969 511.566406 347.386719 507.898438 350.625 C 511.566406 354.082031 514.160156 359.046875 514.160156 364.445312 C 514.160156 374.378906 505.953125 382.371094 496.019531 382.371094 Z M 486.734375 373.730469 L 496.019531 373.730469 C 501.203125 373.730469 505.523438 369.628906 505.523438 364.445312 C 505.523438 359.261719 501.203125 354.945312 496.019531 354.945312 L 486.734375 354.945312 Z M 486.734375 346.304688 L 496.019531 346.304688 C 501.203125 346.304688 505.523438 342.203125 505.523438 337.019531 C 505.523438 331.835938 501.203125 327.519531 496.019531 327.519531 L 486.734375 327.519531 Z M 442.03125 382.371094 C 435.984375 382.371094 430.15625 379.777344 426.050781 374.8125 C 421.734375 369.628906 419.359375 362.503906 419.359375 354.082031 L 419.359375 323.414062 C 419.359375 321.039062 421.300781 319.097656 423.675781 319.097656 C 426.050781 319.097656 427.996094 321.039062 427.996094 323.414062 L 427.996094 354.082031 C 427.996094 360.34375 429.507812 365.742188 432.53125 369.195312 C 435.121094 372.21875 438.363281 373.730469 442.03125 373.730469 C 448.726562 373.730469 456.070312 367.683594 456.070312 354.082031 L 456.070312 323.414062 C 456.070312 321.039062 458.011719 319.097656 460.386719 319.097656 C 462.765625 319.097656 464.707031 321.039062 464.707031 323.414062 L 464.707031 354.082031 C 464.707031 372.652344 453.261719 382.371094 442.03125 382.371094 Z M 442.03125 382.371094 "/><path style=" stroke:none;fill-rule:evenodd;fill:#ffffff;fill-opacity:1;" d="M 578.945312 289.945312 L 445.054688 289.945312 C 442.679688 289.945312 440.738281 288 440.738281 285.625 L 440.738281 126.253906 C 440.738281 123.664062 442.679688 121.933594 445.054688 121.933594 L 545.257812 121.933594 C 546.335938 121.933594 547.414062 122.367188 548.28125 123.015625 L 581.96875 156.917969 C 582.832031 157.566406 583.261719 158.648438 583.261719 159.941406 L 583.261719 285.625 C 583.261719 288 581.320312 289.945312 578.945312 289.945312 Z M 449.375 281.304688 L 574.625 281.304688 L 574.625 161.671875 L 543.527344 130.574219 L 449.375 130.574219 Z M 449.375 281.304688 "/><path style=" stroke:none;fill-rule:evenodd;fill:#ffffff;fill-opacity:1;" d="M 578.945312 164.261719 L 545.257812 164.261719 C 542.878906 164.261719 540.9375 162.316406 540.9375 159.941406 L 540.9375 126.253906 C 540.9375 124.3125 542.015625 122.800781 543.527344 122.152344 C 545.257812 121.503906 546.984375 121.933594 548.28125 123.015625 L 581.96875 156.917969 C 583.261719 158 583.695312 159.941406 583.046875 161.453125 C 582.398438 163.183594 580.671875 164.261719 578.945312 164.261719 Z M 578.945312 164.261719 "/><path style=" stroke:none;fill-rule:evenodd;fill:#ffffff;fill-opacity:1;" d="M 523.011719 176.355469 L 467.296875 176.355469 C 464.921875 176.355469 462.980469 174.410156 462.980469 172.035156 L 462.980469 149.578125 C 462.980469 147.203125 464.921875 145.257812 467.296875 145.257812 L 523.011719 145.257812 C 525.390625 145.257812 527.332031 147.203125 527.332031 149.578125 L 527.332031 172.035156 C 527.332031 174.410156 525.390625 176.355469 523.011719 176.355469 Z M 523.011719 176.355469 "/><path style=" stroke:none;fill-rule:evenodd;fill:#ffffff;fill-opacity:1;" d="M 535.105469 225.160156 C 529.492188 225.160156 486.085938 223.863281 485.871094 223.863281 C 484.359375 222.136719 484.359375 219.542969 485.871094 217.816406 L 508.976562 194.710938 C 510.703125 193.199219 513.511719 193.199219 515.023438 194.710938 L 538.128906 217.816406 C 539.859375 219.542969 539.859375 222.136719 538.128906 223.863281 C 537.265625 224.726562 536.1875 225.160156 535.105469 225.160156 Z M 535.105469 225.160156 "/><path style=" stroke:none;fill-rule:evenodd;fill:#ffffff;fill-opacity:1;" d="M 512 264.246094 C 509.625 264.246094 507.679688 262.300781 507.679688 259.925781 L 507.679688 197.734375 C 507.679688 195.359375 509.625 193.414062 512 193.414062 C 514.375 193.414062 516.320312 195.359375 516.320312 197.734375 L 516.320312 259.925781 C 516.320312 262.300781 514.375 264.246094 512 264.246094 Z M 512 264.246094 "/><path style=" stroke:none;fill-rule:evenodd;fill:#ffffff;fill-opacity:1;" d="M 519.773438 461.40625 C 518.480469 461.40625 517.398438 460.976562 516.75 460.328125 L 505.738281 449.3125 L 495.15625 456.441406 C 494.078125 457.304688 492.347656 457.304688 491.054688 456.871094 C 489.757812 456.222656 488.894531 454.929688 488.460938 453.632812 L 479.390625 401.15625 C 479.175781 399.644531 479.609375 398.351562 480.6875 397.269531 C 481.550781 396.40625 483.0625 395.972656 484.359375 396.191406 L 536.835938 405.261719 C 538.347656 405.476562 539.425781 406.554688 540.074219 407.851562 C 540.722656 409.148438 540.503906 410.660156 539.640625 411.953125 L 532.730469 422.535156 L 543.527344 433.332031 C 545.257812 435.0625 545.257812 437.867188 543.527344 439.378906 L 522.796875 460.328125 C 521.933594 460.976562 520.855469 461.40625 519.773438 461.40625 Z M 519.773438 461.40625 "/></g></svg>