<svg xmlns="http://www.w3.org/2000/svg" xmlns:xlink="http://www.w3.org/1999/xlink" width="1366" zoomAndPan="magnify" viewBox="0 0 1024.5 576" height="768" preserveAspectRatio="xMidYMid meet" version="1.2"><g id="ea99eab684"><path style=" stroke:none;fill-rule:nonzero;fill:#ffa801;fill-opacity:1;" d="M 26.339844 120.039062 L 997.496094 120.039062 C 998.359375 120.039062 999.222656 120.082031 1000.082031 120.167969 C 1000.941406 120.25 1001.792969 120.378906 1002.640625 120.546875 C 1003.488281 120.714844 1004.324219 120.925781 1005.148438 121.175781 C 1005.976562 121.425781 1006.789062 121.714844 1007.585938 122.046875 C 1008.382812 122.375 1009.160156 122.746094 1009.921875 123.152344 C 1010.683594 123.558594 1011.425781 124.003906 1012.140625 124.480469 C 1012.859375 124.960938 1013.550781 125.476562 1014.21875 126.023438 C 1014.886719 126.570312 1015.527344 127.148438 1016.136719 127.761719 C 1016.746094 128.371094 1017.328125 129.011719 1017.875 129.675781 C 1018.421875 130.34375 1018.933594 131.039062 1019.414062 131.753906 C 1019.894531 132.472656 1020.339844 133.210938 1020.746094 133.972656 C 1021.152344 134.734375 1021.519531 135.515625 1021.851562 136.3125 C 1022.179688 137.109375 1022.472656 137.921875 1022.722656 138.75 C 1022.972656 139.574219 1023.183594 140.410156 1023.351562 141.257812 C 1023.519531 142.105469 1023.644531 142.957031 1023.730469 143.816406 C 1023.816406 144.675781 1023.859375 145.539062 1023.859375 146.402344 L 1023.859375 429.546875 C 1023.859375 430.410156 1023.816406 431.269531 1023.730469 432.128906 C 1023.644531 432.988281 1023.519531 433.839844 1023.351562 434.6875 C 1023.183594 435.535156 1022.972656 436.371094 1022.722656 437.199219 C 1022.472656 438.023438 1022.179688 438.835938 1021.851562 439.632812 C 1021.519531 440.429688 1021.152344 441.210938 1020.746094 441.972656 C 1020.335938 442.734375 1019.894531 443.472656 1019.414062 444.191406 C 1018.933594 444.910156 1018.421875 445.601562 1017.875 446.269531 C 1017.328125 446.9375 1016.746094 447.574219 1016.136719 448.183594 C 1015.527344 448.796875 1014.886719 449.375 1014.21875 449.921875 C 1013.550781 450.46875 1012.859375 450.984375 1012.140625 451.464844 C 1011.425781 451.941406 1010.683594 452.386719 1009.921875 452.792969 C 1009.160156 453.199219 1008.382812 453.570312 1007.585938 453.898438 C 1006.789062 454.230469 1005.976562 454.519531 1005.148438 454.769531 C 1004.324219 455.019531 1003.488281 455.230469 1002.640625 455.398438 C 1001.792969 455.566406 1000.941406 455.695312 1000.082031 455.777344 C 999.222656 455.863281 998.359375 455.90625 997.496094 455.90625 L 26.339844 455.90625 C 25.476562 455.90625 24.613281 455.863281 23.753906 455.777344 C 22.894531 455.695312 22.042969 455.566406 21.195312 455.398438 C 20.347656 455.230469 19.511719 455.019531 18.6875 454.769531 C 17.859375 454.519531 17.046875 454.230469 16.25 453.898438 C 15.453125 453.570312 14.671875 453.199219 13.914062 452.792969 C 13.152344 452.386719 12.410156 451.941406 11.691406 451.464844 C 10.976562 450.984375 10.28125 450.46875 9.617188 449.921875 C 8.949219 449.375 8.308594 448.796875 7.699219 448.183594 C 7.089844 447.574219 6.507812 446.9375 5.960938 446.269531 C 5.414062 445.601562 4.898438 444.910156 4.421875 444.191406 C 3.941406 443.472656 3.496094 442.734375 3.089844 441.972656 C 2.683594 441.210938 2.316406 440.429688 1.984375 439.632812 C 1.652344 438.835938 1.363281 438.023438 1.113281 437.199219 C 0.863281 436.371094 0.652344 435.535156 0.484375 434.6875 C 0.316406 433.839844 0.1875 432.988281 0.105469 432.128906 C 0.0195312 431.269531 -0.0234375 430.410156 -0.0234375 429.546875 L -0.0234375 146.402344 C -0.0234375 145.539062 0.0195312 144.675781 0.105469 143.816406 C 0.1875 142.957031 0.316406 142.105469 0.484375 141.257812 C 0.652344 140.410156 0.863281 139.574219 1.113281 138.75 C 1.363281 137.921875 1.652344 137.109375 1.984375 136.3125 C 2.316406 135.515625 2.683594 134.734375 3.089844 133.972656 C 3.496094 133.210938 3.941406 132.472656 4.421875 131.753906 C 4.898438 131.039062 5.414062 130.34375 5.960938 129.675781 C 6.507812 129.011719 7.089844 128.371094 7.699219 127.761719 C 8.308594 127.148438 8.949219 126.570312 9.617188 126.023438 C 10.28125 125.476562 10.976562 124.960938 11.691406 124.480469 C 12.410156 124.003906 13.152344 123.558594 13.914062 123.152344 C 14.671875 122.746094 15.453125 122.375 16.25 122.046875 C 17.046875 121.714844 17.859375 121.425781 18.6875 121.175781 C 19.511719 120.925781 20.347656 120.714844 21.195312 120.546875 C 22.042969 120.378906 22.894531 120.25 23.753906 120.167969 C 24.613281 120.082031 25.476562 120.039062 26.339844 120.039062 Z M 26.339844 120.039062 "/><path style=" stroke:none;fill-rule:nonzero;fill:#004ad0;fill-opacity:1;" d="M -0.0234375 178.367188 L 1023.859375 178.367188 L 1023.859375 220.253906 L -0.0234375 220.253906 Z M -0.0234375 178.367188 "/><path style=" stroke:none;fill-rule:nonzero;fill:#ffffff;fill-opacity:1;" d="M 640.632812 178.367188 L 1023.859375 178.367188 L 1023.859375 220.253906 L 640.632812 220.253906 Z M 640.632812 178.367188 "/><path style=" stroke:none;fill-rule:nonzero;fill:#000000;fill-opacity:1;" d="M 139.3125 283.941406 L 139.3125 391.089844 C 139.3125 393.679688 137.207031 395.761719 134.640625 395.761719 L 118.800781 395.761719 C 116.207031 395.761719 114.125 393.660156 114.125 391.089844 L 114.125 283.941406 C 114.125 281.347656 116.230469 279.265625 118.800781 279.265625 L 134.640625 279.265625 C 137.230469 279.265625 139.3125 281.371094 139.3125 283.941406 Z M 139.3125 283.941406 "/><path style=" stroke:none;fill-rule:nonzero;fill:#000000;fill-opacity:1;" d="M 220.1875 395.785156 L 204.351562 395.785156 C 201.757812 395.785156 199.675781 393.679688 199.675781 391.113281 L 199.675781 299.09375 C 199.675781 298.140625 199.34375 297.300781 198.679688 296.566406 C 198.015625 295.835938 197.21875 295.480469 196.242188 295.480469 L 186.519531 295.480469 C 185.566406 295.480469 184.746094 295.835938 184.082031 296.566406 C 183.417969 297.300781 183.085938 298.140625 183.085938 299.09375 L 183.085938 391.113281 C 183.085938 393.703125 180.980469 395.785156 178.410156 395.785156 L 162.574219 395.785156 C 159.980469 395.785156 157.898438 393.679688 157.898438 391.113281 L 157.898438 301.242188 C 157.898438 285.402344 165.339844 277.472656 180.226562 277.472656 L 202.554688 277.472656 C 217.441406 277.472656 224.886719 285.402344 224.886719 301.242188 L 224.886719 391.113281 C 224.886719 393.703125 222.78125 395.785156 220.210938 395.785156 Z M 220.1875 395.785156 "/><path style=" stroke:none;fill-rule:nonzero;fill:#000000;fill-opacity:1;" d="M 323.550781 279.265625 C 338.4375 279.265625 345.878906 287.199219 345.878906 303.035156 L 345.878906 326.273438 C 345.878906 342.113281 338.4375 350.042969 323.550781 350.042969 L 307.886719 350.042969 C 305.296875 350.042969 303.214844 352.148438 303.214844 354.714844 L 303.214844 391.089844 C 303.214844 393.679688 301.109375 395.765625 298.539062 395.765625 L 282.703125 395.765625 C 280.109375 395.765625 278.027344 393.660156 278.027344 391.089844 L 278.027344 283.941406 C 278.027344 281.347656 280.132812 279.265625 282.703125 279.265625 L 323.59375 279.265625 Z M 320.671875 329.152344 L 320.671875 300.15625 C 320.671875 299.203125 320.335938 298.363281 319.671875 297.632812 C 319.007812 296.898438 318.210938 296.546875 317.238281 296.546875 L 307.867188 296.546875 C 305.273438 296.546875 303.191406 298.648438 303.191406 301.21875 L 303.191406 328.046875 C 303.191406 330.636719 305.296875 332.71875 307.867188 332.71875 L 317.238281 332.71875 C 318.1875 332.71875 319.007812 332.363281 319.671875 331.632812 C 320.335938 330.902344 320.671875 330.082031 320.671875 329.109375 Z M 320.671875 329.152344 "/><path style=" stroke:none;fill-rule:nonzero;fill:#000000;fill-opacity:1;" d="M 383.714844 352.746094 L 383.714844 391.113281 C 383.714844 393.703125 381.609375 395.785156 379.039062 395.785156 L 363.203125 395.785156 C 360.609375 395.785156 358.527344 393.679688 358.527344 391.113281 L 358.527344 283.964844 C 358.527344 281.371094 360.632812 279.289062 363.203125 279.289062 L 403.363281 279.289062 C 418.25 279.289062 425.691406 287.21875 425.691406 303.058594 L 425.691406 316.570312 C 425.691406 323.347656 423.984375 328.398438 420.574219 331.722656 C 418.824219 333.40625 418.734375 336.332031 420.464844 338.058594 C 423.121094 340.714844 424.453125 344.613281 424.453125 349.730469 L 424.453125 391.15625 C 424.453125 393.746094 422.347656 395.828125 419.777344 395.828125 L 403.9375 395.828125 C 401.347656 395.828125 399.265625 393.726562 399.265625 391.15625 L 399.265625 351.726562 C 399.265625 349.332031 398.113281 348.113281 395.851562 348.113281 L 388.476562 348.113281 C 385.886719 348.113281 383.800781 350.21875 383.800781 352.789062 Z M 383.714844 301.066406 L 383.714844 325.742188 C 383.714844 328.332031 385.820312 330.414062 388.386719 330.414062 L 397.027344 330.414062 C 397.980469 330.414062 398.800781 330.0625 399.464844 329.332031 C 400.128906 328.597656 400.460938 327.757812 400.460938 326.804688 L 400.460938 299.980469 C 400.460938 299.027344 400.128906 298.183594 399.464844 297.453125 C 398.800781 296.722656 398 296.367188 397.027344 296.367188 L 388.386719 296.367188 C 385.796875 296.367188 383.714844 298.472656 383.714844 301.042969 Z M 383.714844 301.066406 "/><path style=" stroke:none;fill-rule:nonzero;fill:#000000;fill-opacity:1;" d="M 510.488281 301.242188 L 510.488281 373.8125 C 510.488281 389.671875 503.046875 397.582031 488.160156 397.582031 L 464.214844 397.582031 C 449.328125 397.582031 441.882812 389.648438 441.882812 373.8125 L 441.882812 301.242188 C 441.882812 285.402344 449.328125 277.472656 464.214844 277.472656 L 488.160156 277.472656 C 503.046875 277.472656 510.488281 285.402344 510.488281 301.242188 Z M 485.28125 376.714844 L 485.28125 298.183594 C 485.28125 297.230469 484.949219 296.390625 484.285156 295.660156 C 483.617188 294.929688 482.820312 294.574219 481.847656 294.574219 L 470.503906 294.574219 C 469.550781 294.574219 468.734375 294.929688 468.066406 295.660156 C 467.402344 296.390625 467.070312 297.230469 467.070312 298.183594 L 467.070312 376.714844 C 467.070312 377.664062 467.402344 378.507812 468.066406 379.238281 C 468.734375 379.96875 469.53125 380.324219 470.503906 380.324219 L 481.847656 380.324219 C 482.800781 380.324219 483.617188 379.96875 484.285156 379.238281 C 484.949219 378.507812 485.28125 377.6875 485.28125 376.714844 Z M 485.28125 376.714844 "/><path style=" stroke:none;fill-rule:nonzero;fill:#000000;fill-opacity:1;" d="M 563.078125 344.816406 L 563.078125 335.621094 C 563.078125 333.03125 565.183594 330.949219 567.75 330.949219 L 591.699219 330.949219 C 594.289062 330.949219 596.371094 333.050781 596.371094 335.621094 L 596.371094 373.789062 C 596.371094 389.648438 588.929688 397.558594 574.042969 397.558594 L 551.359375 397.558594 C 536.472656 397.558594 529.03125 389.628906 529.03125 373.789062 L 529.03125 301.21875 C 529.03125 285.382812 536.472656 277.449219 551.359375 277.449219 L 574.042969 277.449219 C 588.929688 277.449219 596.371094 285.382812 596.371094 301.21875 L 596.371094 307.53125 C 596.371094 310.125 594.265625 312.207031 591.699219 312.207031 L 577.097656 312.207031 C 574.507812 312.207031 572.425781 310.101562 572.425781 307.53125 L 572.425781 298.164062 C 572.425781 297.210938 572.09375 296.367188 571.429688 295.636719 C 570.765625 294.90625 569.964844 294.550781 568.992188 294.550781 L 557.648438 294.550781 C 556.699219 294.550781 555.878906 294.90625 555.214844 295.636719 C 554.550781 296.367188 554.214844 297.210938 554.214844 298.164062 L 554.214844 376.691406 C 554.214844 377.644531 554.550781 378.484375 555.214844 379.214844 C 555.878906 379.949219 556.675781 380.300781 557.648438 380.300781 L 568.992188 380.300781 C 569.945312 380.300781 570.765625 379.949219 571.429688 379.214844 C 572.09375 378.484375 572.425781 377.664062 572.425781 376.691406 L 572.425781 354.183594 C 572.425781 351.59375 570.320312 349.511719 567.75 349.511719 C 565.160156 349.511719 563.078125 347.40625 563.078125 344.835938 Z M 563.078125 344.816406 "/><path style=" stroke:none;fill-rule:nonzero;fill:#000000;fill-opacity:1;" d="M 635.46875 352.746094 L 635.46875 391.113281 C 635.46875 393.703125 633.363281 395.785156 630.796875 395.785156 L 614.957031 395.785156 C 612.367188 395.785156 610.28125 393.679688 610.28125 391.113281 L 610.28125 283.964844 C 610.28125 281.371094 612.386719 279.289062 614.957031 279.289062 L 655.117188 279.289062 C 670.003906 279.289062 677.449219 287.21875 677.449219 303.058594 L 677.449219 316.570312 C 677.449219 323.347656 675.742188 328.398438 672.332031 331.722656 C 670.582031 333.40625 670.492188 336.332031 672.21875 338.058594 C 674.878906 340.714844 676.207031 344.613281 676.207031 349.730469 L 676.207031 391.15625 C 676.207031 393.746094 674.101562 395.828125 671.53125 395.828125 L 655.695312 395.828125 C 653.101562 395.828125 651.019531 393.726562 651.019531 391.15625 L 651.019531 351.726562 C 651.019531 349.332031 649.867188 348.113281 647.609375 348.113281 L 640.230469 348.113281 C 637.640625 348.113281 635.558594 350.21875 635.558594 352.789062 Z M 635.46875 301.066406 L 635.46875 325.742188 C 635.46875 328.332031 637.574219 330.414062 640.144531 330.414062 L 648.78125 330.414062 C 649.734375 330.414062 650.554688 330.0625 651.21875 329.332031 C 651.882812 328.597656 652.214844 327.757812 652.214844 326.804688 L 652.214844 299.980469 C 652.214844 299.027344 651.882812 298.183594 651.21875 297.453125 C 650.554688 296.722656 649.757812 296.367188 648.78125 296.367188 L 640.144531 296.367188 C 637.550781 296.367188 635.46875 298.472656 635.46875 301.042969 Z M 635.46875 301.066406 "/><path style=" stroke:none;fill-rule:nonzero;fill:#000000;fill-opacity:1;" d="M 723.546875 374.898438 L 742.085938 374.898438 C 744.679688 374.898438 746.761719 377 746.761719 379.570312 L 746.761719 391.089844 C 746.761719 393.679688 744.65625 395.761719 742.085938 395.761719 L 698.3125 395.761719 C 695.722656 395.761719 693.640625 393.660156 693.640625 391.089844 L 693.640625 283.941406 C 693.640625 281.347656 695.746094 279.265625 698.3125 279.265625 L 742.085938 279.265625 C 744.679688 279.265625 746.761719 281.371094 746.761719 283.941406 L 746.761719 295.105469 C 746.761719 297.699219 744.65625 299.78125 742.085938 299.78125 L 723.546875 299.78125 C 720.953125 299.78125 718.871094 301.882812 718.871094 304.453125 L 718.871094 322.464844 C 718.871094 325.054688 720.976562 327.136719 723.546875 327.136719 L 740.292969 327.136719 C 742.882812 327.136719 744.964844 329.242188 744.964844 331.8125 L 744.964844 342.265625 C 744.964844 344.859375 742.863281 346.941406 740.292969 346.941406 L 723.546875 346.941406 C 720.953125 346.941406 718.871094 349.046875 718.871094 351.613281 L 718.871094 370.15625 C 718.871094 372.746094 720.976562 374.828125 723.546875 374.828125 Z M 723.546875 374.898438 "/><path style=" stroke:none;fill-rule:nonzero;fill:#000000;fill-opacity:1;" d="M 821.324219 309.882812 L 806.726562 309.882812 C 804.132812 309.882812 802.050781 307.777344 802.050781 305.207031 L 802.050781 300.710938 C 802.050781 299.757812 801.71875 298.914062 801.054688 298.183594 C 800.390625 297.453125 799.59375 297.097656 798.617188 297.097656 L 788.714844 297.097656 C 787.761719 297.097656 786.945312 297.453125 786.28125 298.183594 C 785.613281 298.914062 785.28125 299.757812 785.28125 300.710938 L 785.28125 321.421875 C 785.28125 322.375 785.613281 323.214844 786.28125 323.949219 C 786.945312 324.679688 787.742188 325.03125 788.714844 325.03125 L 804.929688 325.03125 C 819.816406 325.277344 827.261719 333.207031 827.261719 348.800781 L 827.261719 373.832031 C 827.261719 389.695312 819.816406 397.601562 804.929688 397.601562 L 783.6875 397.601562 C 768.800781 397.601562 761.359375 389.671875 761.359375 373.832031 L 761.359375 366.457031 C 761.359375 363.863281 763.464844 361.78125 766.03125 361.78125 L 780.609375 361.78125 C 783.199219 361.78125 785.28125 363.886719 785.28125 366.457031 L 785.28125 374.742188 C 785.28125 375.695312 785.613281 376.535156 786.28125 377.265625 C 786.945312 377.996094 787.742188 378.351562 788.714844 378.351562 L 799.878906 378.351562 C 800.832031 378.351562 801.652344 377.996094 802.316406 377.265625 C 802.980469 376.535156 803.3125 375.714844 803.3125 374.742188 L 803.3125 351.859375 C 803.3125 350.90625 802.980469 350.066406 802.316406 349.332031 C 801.652344 348.601562 800.855469 348.25 799.878906 348.25 L 783.664062 348.25 C 768.78125 348.25 761.335938 340.316406 761.335938 324.480469 L 761.335938 301.242188 C 761.335938 285.402344 768.78125 277.472656 783.664062 277.472656 L 803.644531 277.472656 C 818.53125 277.472656 825.976562 285.402344 825.976562 301.242188 L 825.976562 305.207031 C 825.976562 307.800781 823.871094 309.882812 821.300781 309.882812 Z M 821.324219 309.882812 "/><path style=" stroke:none;fill-rule:nonzero;fill:#000000;fill-opacity:1;" d="M 903.792969 309.882812 L 889.195312 309.882812 C 886.605469 309.882812 884.523438 307.777344 884.523438 305.207031 L 884.523438 300.710938 C 884.523438 299.757812 884.191406 298.914062 883.527344 298.183594 C 882.859375 297.453125 882.0625 297.097656 881.089844 297.097656 L 871.1875 297.097656 C 870.234375 297.097656 869.414062 297.453125 868.75 298.183594 C 868.085938 298.914062 867.753906 299.757812 867.753906 300.710938 L 867.753906 321.421875 C 867.753906 322.375 868.085938 323.214844 868.75 323.949219 C 869.414062 324.679688 870.210938 325.03125 871.1875 325.03125 L 887.402344 325.03125 C 902.289062 325.277344 909.730469 333.207031 909.730469 348.800781 L 909.730469 373.832031 C 909.730469 389.695312 902.289062 397.601562 887.402344 397.601562 L 866.160156 397.601562 C 851.273438 397.601562 843.828125 389.671875 843.828125 373.832031 L 843.828125 366.457031 C 843.828125 363.863281 845.933594 361.78125 848.503906 361.78125 L 863.078125 361.78125 C 865.671875 361.78125 867.753906 363.886719 867.753906 366.457031 L 867.753906 374.742188 C 867.753906 375.695312 868.085938 376.535156 868.75 377.265625 C 869.414062 377.996094 870.210938 378.351562 871.1875 378.351562 L 882.351562 378.351562 C 883.304688 378.351562 884.125 377.996094 884.789062 377.265625 C 885.453125 376.535156 885.785156 375.714844 885.785156 374.742188 L 885.785156 351.859375 C 885.785156 350.90625 885.453125 350.066406 884.789062 349.332031 C 884.125 348.601562 883.328125 348.25 882.351562 348.25 L 866.136719 348.25 C 851.25 348.25 843.808594 340.316406 843.808594 324.480469 L 843.808594 301.242188 C 843.808594 285.402344 851.25 277.472656 866.136719 277.472656 L 886.117188 277.472656 C 901.003906 277.472656 908.445312 285.402344 908.445312 301.242188 L 908.445312 305.207031 C 908.445312 307.800781 906.34375 309.882812 903.773438 309.882812 Z M 903.792969 309.882812 "/></g></svg>